<svg width="374" height="70" viewBox="0 0 374 70" fill="none" xmlns="http://www.w3.org/2000/svg">
<path d="M37.391 67.416L36.617 67.412C13.718 67.099 0.0500031 57.129 0.0500031 40.74C0.0500031 29.763 9.548 9.099 45.145 1.283L46.41 1.006L50.965 20.412L49.529 20.603C38.444 22.083 22.831 29.017 22.831 39.798C22.831 46.987 30.224 49.823 35.676 50.083L35.745 44.565C35.745 43.346 35.702 42.155 35.66 40.975C35.618 39.786 35.576 38.606 35.576 37.405V36.092H56.768L56.733 37.438C56.647 40.756 56.647 42.745 56.647 45.262V51.496C56.647 53.346 56.703 56.582 56.752 59.437C56.788 61.535 56.819 63.365 56.819 64.132V65.128L55.86 65.398C53.601 66.031 45.818 67.416 37.391 67.416ZM44.445 4.134C11.515 11.788 2.676 30.675 2.676 40.739C2.676 55.505 15.376 64.493 36.648 64.784L37.391 64.786C44.591 64.786 51.242 63.761 54.182 63.106C54.17 62.186 54.148 60.897 54.124 59.483C54.075 56.618 54.019 53.37 54.019 51.497V45.263C54.019 43.085 54.019 41.3 54.074 38.72H38.216C38.232 39.441 38.258 40.159 38.283 40.882C38.326 42.093 38.37 43.314 38.37 44.581L38.269 52.692L37.005 52.723C36.838 52.729 36.672 52.731 36.502 52.731C32.67 52.731 28.801 51.667 25.886 49.809C22.167 47.44 20.201 43.977 20.201 39.797C20.201 27.277 36.527 20.106 47.748 18.214L44.445 4.134Z" fill="black"/>
<path d="M106.831 69.39L106.078 68.144C105.117 66.556 100.412 59.636 95.861 52.945C91.464 46.48 86.923 39.806 85.462 37.5V38.604C85.462 42.133 85.726 63.297 85.877 64.563L86.053 66.034L84.574 66.048H63.983L64.237 64.519C64.363 63.757 64.493 58.142 64.395 35.719L64.388 26.82C64.388 23.726 64.208 5.757 63.978 4.31L63.737 2.78999H65.276C76.328 2.78999 88.705 2.933 96.704 3.998C113.736 6.188 117.312 13.765 117.312 19.733C117.312 26.192 114.009 31.711 106.945 37.011C108.396 38.565 110.811 41.073 113.336 43.692C117.864 48.391 122.547 53.251 123.851 54.854L124.71 55.911L106.831 69.39ZM88.191 36.883C89.996 39.65 94.072 45.644 98.033 51.468C102.014 57.322 105.811 62.904 107.546 65.56L120.915 55.48C118.979 53.334 115.013 49.218 111.443 45.513C108.189 42.136 105.115 38.947 103.998 37.681L103.027 36.583L104.224 35.739C111.361 30.704 114.684 25.618 114.684 19.731C114.684 10.826 104.72 7.67501 96.361 6.60001C88.842 5.60001 77.276 5.428 66.679 5.414C66.906 10.533 67.014 25.758 67.014 26.816L67.021 35.704C67.088 50.937 67.06 59.928 66.931 63.418H83.196C83.021 58.111 82.835 40.967 82.835 38.602V14.56L84.161 14.574C96.2 14.688 97.5 21.085 97.5 23.83C97.5 29.93 91.681 34.62 88.191 36.883ZM85.461 17.242V35.478L85.697 35.337C87.849 34.065 94.872 29.473 94.872 23.829C94.873 18.916 90.027 17.492 85.461 17.242Z" fill="black"/>
<path d="M150.007 66.046H127.451L127.513 64.673C127.681 60.974 127.77 40.935 127.77 38.771V29.552C127.77 28.888 127.716 23.947 127.658 18.581C127.587 12.013 127.512 5.222 127.512 4.101V2.78799H150.024L149.948 4.173C149.867 5.653 149.608 19.312 149.608 29.718V38.945C149.608 47.474 149.864 62.681 149.949 64.675L150.007 66.046ZM130.182 63.419H147.284C147.177 59.001 146.981 46.411 146.981 38.944V29.717C146.981 20.793 147.172 9.459 147.279 5.414H130.148C130.169 7.989 130.23 13.538 130.285 18.551C130.344 23.93 130.397 28.885 130.397 29.551V38.77C130.397 40.83 130.326 57.576 130.182 63.419Z" fill="black"/>
<path d="M322.555 59.115C321.446 56.859 316.721 46.316 311.718 35.156C306.339 23.156 300.243 9.556 297.203 3.039L296.849 2.28101H294.429L294.044 2.90401C292.618 5.21701 290.449 8.779 288.041 12.735C283.565 20.085 278.144 28.989 275.294 33.477C274.606 32.341 273.725 30.886 272.712 29.213C267.872 21.221 259.773 7.844 255.886 1.535L255.501 0.910995H253.067L252.716 1.679C249.906 7.832 243.178 24.767 237.592 38.956C237.056 37.761 236.513 36.55 235.965 35.327C230.557 23.262 224.427 9.58599 221.373 3.03799L221.019 2.28H218.595L218.21 2.90401C216.79 5.20801 214.631 8.75499 212.233 12.693C207.751 20.057 202.318 28.981 199.465 33.476C198.73 32.264 197.774 30.686 196.673 28.87C191.58 20.462 183.884 7.756 180.051 1.535L179.666 0.910995H177.239L176.888 1.679C173.325 9.475 163.496 34.517 157.625 49.478C155.301 55.4 153.622 59.679 153.217 60.632L152.679 61.9L172.007 69.064L172.472 67.851C173.416 65.386 175.987 56.533 178.254 48.72C179.186 45.509 180.085 42.413 180.759 40.152C183.892 45.388 190.745 56.388 196.2 64.607L196.59 65.195H198.822L199.216 64.644C204.501 57.246 212.809 44.587 216.204 39.408C216.907 41.25 217.917 43.92 219.019 46.832C221.872 54.367 225.421 63.748 227.071 67.869L227.578 69.137L236.867 64.998L247.841 69.064L248.305 67.851C249.247 65.388 251.817 56.54 254.082 48.734C255.016 45.519 255.916 42.418 256.591 40.154C259.722 45.39 266.572 56.388 272.027 64.607L272.417 65.195H274.651L275.045 64.644C280.32 57.257 288.765 44.398 292.034 39.408C292.752 41.289 293.79 44.031 294.924 47.025C297.75 54.492 301.267 63.783 302.901 67.869L303.408 69.137L323.153 60.34L322.555 59.115ZM229.013 65.623C227.225 61.074 224.067 52.73 221.482 45.902C219.598 40.923 218.11 36.992 217.73 36.058L216.796 33.761L215.42 35.824C215.258 36.067 214.848 36.692 214.248 37.607C211.155 42.326 203.146 54.543 197.749 62.179C191.129 52.144 182.823 38.661 181.548 36.275L180.099 33.562L179.142 36.486C178.555 38.279 177.248 42.779 175.736 47.988C173.869 54.422 171.603 62.224 170.454 65.685L156.159 60.386C156.914 58.497 158.309 54.941 160.076 50.437C165.609 36.34 174.659 13.279 178.63 4.23199C182.69 10.847 189.965 22.859 194.431 30.232C196.21 33.169 197.613 35.483 198.314 36.636L199.39 38.404L200.532 36.677C202.832 33.198 209.292 22.587 214.482 14.06C216.465 10.802 218.285 7.813 219.657 5.575C222.87 12.527 228.534 25.164 233.571 36.403C234.492 38.457 235.388 40.457 236.25 42.377C235.28 44.846 234.359 47.191 233.521 49.326C231.164 55.332 229.46 59.67 229.051 60.633L228.512 61.901L233.349 63.694L229.013 65.623ZM231.987 60.387C232.751 58.479 234.169 54.866 235.966 50.287L254.459 4.22701C258.57 10.927 265.943 23.104 270.467 30.574C272.147 33.348 273.466 35.528 274.14 36.637L275.215 38.405L276.358 36.678C278.655 33.205 285.105 22.614 290.288 14.102C292.28 10.831 294.109 7.82699 295.487 5.57899C298.684 12.5 304.314 25.06 309.322 36.231C313.891 46.424 317.916 55.405 319.613 59.044L304.842 65.624C303.071 61.112 299.945 52.854 297.386 46.097C295.463 41.017 293.944 37.005 293.559 36.059L292.622 33.761L291.248 35.827C291.1 36.05 290.744 36.592 290.227 37.382C287.413 41.677 279.077 54.4 273.578 62.181C266.958 52.148 258.656 38.663 257.383 36.278L255.933 33.562L254.976 36.488C254.388 38.283 253.08 42.787 251.566 48.004C249.701 54.432 247.437 62.229 246.289 65.688L231.987 60.387Z" fill="black"/>
<path d="M321.62 26.046L311.135 6.73199L324.09 0.901001L329.717 22.345L321.62 26.046ZM314.794 7.966L322.758 22.637L326.614 20.874L322.335 4.571L314.794 7.966Z" fill="black"/>
<path d="M335.654 67.716L332.908 50.306L334.494 50.355C334.896 50.367 335.303 50.373 335.708 50.373C344.159 50.373 350.474 47.857 350.474 45.605C350.474 44.619 348.645 43.423 342.772 40.087C336.698 36.62 330.492 32.049 330.492 24.427C330.492 14.692 342.943 3.263 366.02 1.257L367.236 1.15199L369.981 18.142H368.439C359.071 18.142 353.698 19.592 353.698 22.121C353.698 23.293 356.506 24.672 360.756 26.762L361.252 27.006C365.342 29.018 373.852 33.205 373.852 41.934C373.852 51.803 364.177 64.438 336.908 67.573L335.654 67.716ZM335.993 53L337.855 64.811C360.893 61.834 371.223 51.248 371.223 41.934C371.223 34.84 363.98 31.278 360.09 29.364L359.595 29.12C353.918 26.33 351.07 24.93 351.07 22.122C351.07 17.877 356.252 15.715 366.897 15.528L365.033 3.991C344.294 6.13 333.119 16.024 333.119 24.429C333.119 30.691 338.384 34.558 344.072 37.806C351.08 41.786 353.101 43.048 353.101 45.607C353.1 50.408 344.542 52.945 335.993 53Z" fill="black"/>
</svg>
