<?xml version="1.0" encoding="utf-8"?>
<!-- Generator: Adobe Illustrator 16.0.0, SVG Export Plug-In . SVG Version: 6.00 Build 0)  -->
<!DOCTYPE svg PUBLIC "-//W3C//DTD SVG 1.1//EN" "http://www.w3.org/Graphics/SVG/1.1/DTD/svg11.dtd">
<svg version="1.1" id="Ebene_1" xmlns="http://www.w3.org/2000/svg" xmlns:xlink="http://www.w3.org/1999/xlink" x="0px" y="0px"
	 width="433px" height="318px" viewBox="0 0 433 318" enable-background="new 0 0 433 318" xml:space="preserve">
<g>
	<path fill-rule="evenodd" clip-rule="evenodd" d="M186.022,131.431l2.215-4.39c0,0,66.389-2.998,67.42-3.028
		c1.03-0.03,36.34-0.772,36.34-0.772s22.171-0.795,19.697-7.508c-2.473-6.713-19.786-43.105-21.199-44.519
		c-1.413-1.414-27.029-29.149-29.148-29.856c-2.12-0.707-36.746-11.483-36.746-11.483s-39.842,3.405-42.494,6.646
		c-2.651,3.24-31.228,22.979-32.406,25.335c-1.178,2.357-15.909,24.453-17.087,30.934c-1.179,6.481-5.776,27.255-4.361,30.714
		s3.815,7.486,4.125,7.575c0.31,0.089,4.157-32.902,4.157-32.902s2.319,8.391,2.76,8.943c0.442,0.552,14.022,8.06,14.022,8.06
		l4.719,13.879l3.357,2.114l1.88-0.892l10.84,0.91l2.119-2.119c0,0,6.111,3.344,6.561,3.432
		C183.376,132.618,185.698,132.075,186.022,131.431L186.022,131.431z"/>
	<path fill-rule="evenodd" clip-rule="evenodd" fill="#795624" d="M275.394,131.369c0,0-4.596-2.446-4.534-2.766
		c0.061-0.32-2.462-21.354-2.462-21.354s3.939-2.84,4.116-1.775c0.178,1.065,3.896,23.653,3.807,23.964
		C276.233,129.748,275.394,131.369,275.394,131.369L275.394,131.369z"/>
	<path fill-rule="evenodd" clip-rule="evenodd" fill="#014327" d="M262.478,132.238l-1.002,0.143l-3.194-2.912l-2.399-15.353
		l-2.022-6.552c0,0,1.156-1.922,2.523-2.493c1.367-0.57,2.544,2.544,2.544,2.544l2.146,8.711L262.478,132.238L262.478,132.238z"/>
	<path fill-rule="evenodd" clip-rule="evenodd" fill="#00A2AF" d="M216.912,79.073c23.3,0,42.195,21.519,42.195,48.054
		c0,0.716-0.016,1.426-0.043,2.135c-0.202,0.282-0.365,0.571-0.338,0.656c0.066,0.205-0.172,1.201-0.186,1.382
		c-0.014,0.18-1.006,1.281-1.006,1.281l-8.635-0.264l-1.432-1.204l-0.404-0.062l-0.519-1.17c0.851-2.862,1.31-5.896,1.31-9.041
		c0-17.234-12.762-30.945-30.672-31.211c-17.141-0.255-29.559,18.958-30.594,30.266h-0.003c0,0-0.409,2.004-0.464,2.56
		s-0.296,9.208-0.296,9.208s-0.484,0.686-1.732,1.615c-2.476,0.102-5.995,0.234-5.995,0.234s-1.858-2.329-3.33-4.076
		c-0.032-0.766-0.05-1.535-0.05-2.31C174.718,100.592,193.613,79.073,216.912,79.073L216.912,79.073z"/>
	<path fill-rule="evenodd" clip-rule="evenodd" fill="#6A599C" d="M217.575,90.63c16.821,0,30.462,15.199,30.462,33.94
		c0,2.29-0.206,4.525-0.596,6.688c-0.641,0.636-1.373,1.368-2.048,2.063h-55.199c-0.766-0.808-1.708-1.778-2.591-2.678
		c-0.321-1.97-0.49-3.999-0.49-6.072C187.114,105.83,200.755,90.63,217.575,90.63L217.575,90.63z"/>
	<path fill-rule="evenodd" clip-rule="evenodd" fill="#8870AA" d="M218.118,92.571c15.564,0,28.186,13.817,28.186,30.855
		c0,2.75-0.332,5.416-0.949,7.954h-54.473c-0.617-2.538-0.949-5.203-0.949-7.954C189.933,106.388,202.554,92.571,218.118,92.571
		L218.118,92.571z"/>
	<path fill-rule="evenodd" clip-rule="evenodd" fill="#008FA3" d="M249.665,131.571c-0.073,0.185-0.175,1.378-0.175,1.378
		s0.377,0.533,0.571,0.529c0.194-0.004,6.877-0.135,6.877-0.135s0.66-0.55,0.527-0.831c-0.134-0.281-1.569-1.789-1.808-1.809
		C255.418,130.683,249.665,131.571,249.665,131.571L249.665,131.571z"/>
	<path fill-rule="evenodd" clip-rule="evenodd" fill="#008FA3" d="M184.648,132.844l-1.17-1.301c0,0-5.687-0.102-5.821-0.236
		c-0.134-0.134,0.441,2.206,0.441,2.206l5.692,0.192L184.648,132.844L184.648,132.844z"/>
	<path fill-rule="evenodd" clip-rule="evenodd" fill="#00B3CF" d="M217.008,80.262c21.924,0,39.702,20.272,39.702,45.27
		c0,1.995-0.116,3.958-0.336,5.884c-1.806,0.399-5.505,1.217-6.885,1.533c-0.322-0.292-0.335-0.294-0.702-0.632
		c-0.009-3.099,0.025-2.468-0.018-5.178c-0.276-12.588-8.58-42.053-32.688-39.757c-24.106,2.296-32.687,27.918-32.687,39.757
		c0.075,3.768-0.011,2.983,0.121,4.444c-1.396-0.063-3.825-0.17-5.884-0.253c-0.214-1.898-0.327-3.833-0.327-5.798
		C177.306,100.535,195.085,80.262,217.008,80.262L217.008,80.262z"/>
	<path fill-rule="evenodd" clip-rule="evenodd" fill="#36A956" d="M217.846,65.645c29.872,1.47,52.608,20.819,54.373,57.644
		c0,2.964-0.254,5.836-0.727,8.619c-0.967,0.819-2.205,1.741-2.205,1.741s-5.573-0.026-6.009,0c-0.246,0.015-1.381-0.904-2.32-1.704
		v-0.117c3.234-32.645-18.085-54.771-43.454-54.771c-24.134,0.435-44.361,20.584-43.39,54.134l-2.693,2.694l-7.926,0.384
		l-1.586-2.514c-0.024-0.527-0.038-1.069-0.038-1.627C164.438,98.122,182.958,64.226,217.846,65.645L217.846,65.645z"/>
	<path fill-rule="evenodd" clip-rule="evenodd" fill="#55B165" d="M217.234,67.278c28.79,0,52.139,25.287,52.139,56.467
		c0,2.885-0.202,5.717-0.588,8.485h-4.781c0.231-2.079,0.354-4.194,0.354-6.342c0-28.395-20.83-51.422-46.517-51.422
		c-25.685,0-46.515,23.027-46.515,51.422c0,2.148,0.123,4.263,0.354,6.342h-5.994c-0.385-2.768-0.587-5.6-0.587-8.485
		C165.098,92.565,188.446,67.278,217.234,67.278L217.234,67.278z"/>
	<path fill-rule="evenodd" clip-rule="evenodd" fill="#007942" d="M263.278,133.648l-1.026-0.644c0,0,1.716-0.937,1.915-0.937
		s5.409-0.483,5.409-0.483l1.129,0.968l-1.418,1.096H263.278L263.278,133.648z"/>
	<path fill-rule="evenodd" clip-rule="evenodd" fill="#902926" d="M132.938,132.438c0.421-0.637,4.184-4.408,4.257-4.994
		c0.073-0.586,7.914-30.556,7.914-30.556s10.86-16.709,8.762-15.826c-2.098,0.883-15.679,2.981-15.679,2.981
		s-8.899,33.306-9.039,34.052S132.938,132.438,132.938,132.438L132.938,132.438z"/>
	<path fill-rule="evenodd" clip-rule="evenodd" fill="#007942" d="M163.495,134.268c1.009,0.214,7.926-0.336,7.926-0.336
		l0.884-0.932c0,0-0.53-1.275-0.801-1.189s-5.609-0.271-5.882-0.046c-0.271,0.226-2.547,1.837-2.547,1.837L163.495,134.268
		L163.495,134.268z"/>
	<path fill-rule="evenodd" clip-rule="evenodd" fill="#EA742B" d="M218.083,43.002c42.153,0,76.338,30.19,76.338,67.418
		c0,7.318-1.415,15.175-3.858,21.773c-0.581,0-1.094-0.604-1.649-0.813c-1.876-1.212-3.787-2.437-5.327-3.421
		c0.56-3.499,0.852-7.085,0.852-10.741c0-37.267-30.152-67.488-67.334-67.488c-37.634,2.525-67.333,30.222-67.333,67.488
		c0,3.568,0.522,7.192,1.056,10.61c-1.354,2.192-3.107,3.967-4.538,6.071c-2.443-6.597-4.542-16.16-4.542-23.478
		C141.747,73.192,175.931,43.002,218.083,43.002L218.083,43.002z"/>
	<path fill-rule="evenodd" clip-rule="evenodd" fill="#902926" d="M305.362,132.802c0,0-1.127-0.619-1.723-0.988
		c-0.596-0.369-0.79-1.815-0.896-2.187c-0.105-0.372-0.969-1.104-0.682-2.696c0.287-1.592-5.496-22.202-5.496-22.202
		s-5.601-14.963-8.367-23.092c-2.766-8.129,3.677-5.101,3.677-5.101s12.93,30.363,13.106,32.483
		C305.159,111.139,305.362,132.802,305.362,132.802L305.362,132.802z"/>
	<path fill-rule="evenodd" clip-rule="evenodd" fill="#F1983D" d="M219.505,36.61c45.524,0,77.141,39.986,82.376,83.342
		c0,2.964,0.775,7.059,1.122,10.757c-0.916,1.319-1.297,2.123-1.686,2.476c-0.57,0.084-4.697-0.034-5.654,0.002
		c-0.956,0.036-3.189,0.4-3.189,0.4l-3.003-1.905c-0.078-4.613-2-10.552-2.016-15.034c-7.243-42.712-35.123-68.226-72.767-68.226
		c-37.643,0-68.173,31.344-68.173,69.993c0,4.275,0.384,9.357,1.101,13.716c-0.666,0.849-1.383,2.272-1.504,2.332
		c-0.121,0.059-5.249-0.443-8.291-0.63c-0.616-0.479-1.294-1.006-1.792-1.396c-0.393-3.807-0.303-7.934-0.303-11.768
		C135.727,74.991,173.981,36.61,219.505,36.61L219.505,36.61z"/>
	<path fill-rule="evenodd" clip-rule="evenodd" fill="#DD2C31" d="M218.298,23.368c53.916,0,85.802,42.886,97.638,103.994
		c-1.341,2.302-1.278,1.835-1.341,3.364c-1.27,0.415-2.539,0.831-3.808,1.246c-3.673-53.624-43.337-95.856-91.712-95.856
		s-88.04,42.777-91.712,96.4c-2.203,0-4.405-0.543-6.608-0.543c-0.063-1.529-0.096-3.065-0.096-4.61
		C120.659,69.937,164.383,23.368,218.298,23.368L218.298,23.368z"/>
	<path fill-rule="evenodd" clip-rule="evenodd" fill="#BF432E" d="M145.972,134.467c0,0-1.732-2.368-1.998-2.368s-5.223,0-5.223,0
		l-1.323,1.47l0.929,0.836L145.972,134.467L145.972,134.467z"/>
	<path fill-rule="evenodd" clip-rule="evenodd" fill="#BF432E" d="M292.384,133.59l3.189-1.122l4.692-0.311
		c0,0,1.694,1.066,0.822,1.099C300.217,133.29,292.384,133.59,292.384,133.59L292.384,133.59z"/>
	<path fill-rule="evenodd" clip-rule="evenodd" fill="#F7B81E" d="M217.772,51.105c43.463-0.883,66.403,34.034,69.936,78.638
		c0,0.808-2.155,1.952-2.179,2.753l-8.404,0.024l-2.578-1.612c-4.872-40.051-19.103-67.265-55.86-66.275
		c-31.39,2.08-57.292,21.812-57.294,66.54c-0.387,0.358-0.8,0.745-1.215,1.136c-2.966,0.072-5.692,0.384-8.568,0.546
		c-0.858-0.892-2.027-2.137-3.185-3.455C149.302,78.647,178.461,54.774,217.772,51.105L217.772,51.105z"/>
	<path fill-rule="evenodd" clip-rule="evenodd" fill="#FCCE33" d="M217.723,51.699c37.188,0,67.345,34.012,67.345,75.951
		c0,1.34-0.032,2.67-0.094,3.994h-8.021c-2.322-39.008-28.103-69.754-59.554-69.754c-31.451,0-57.231,30.747-59.553,69.754h-7.375
		c-0.062-1.323-0.094-2.653-0.094-3.994C150.378,85.71,180.535,51.699,217.723,51.699L217.723,51.699z"/>
	<polygon fill-rule="evenodd" clip-rule="evenodd" fill="#D47928" points="160.178,132.309 157.889,130.982 150.457,131.298 
		150.461,131.643 152.218,133.496 159.092,133.496 160.178,132.309 	"/>
	<path fill-rule="evenodd" clip-rule="evenodd" fill="#D47928" d="M285.558,132.496c-0.111-0.178-0.474-1.4-0.805-1.377
		c-0.332,0.022-7.217-0.115-7.217-0.115l-1.057,1.113c0,0,0.541,0.405,0.646,0.404c0.104,0,8.179-0.024,8.179-0.024L285.558,132.496
		L285.558,132.496z"/>
	<path fill-rule="evenodd" clip-rule="evenodd" fill="#E32B3E" d="M220.069,25.516c52.928,0,94.153,43.134,95.92,100.267
		l-0.194,2.036c-1.229,1.645-1.711,3.418-2.914,5.004c-1.086,0.038-4.445,0.369-6.376,0.624l-2.286-1.291
		c0.009-1.061,0.016-2.27,0.016-2.804c-3.281-55.492-38.559-94.443-86.105-94.443c-47.546,0-83.921,42.129-83.7,95.846
		c-0.886,0.966-2.499,2.889-2.754,3.781l-7.268-2.565c-0.119-2.048-0.188-4.109-0.188-6.188
		C124.218,70.416,167.141,25.516,220.069,25.516L220.069,25.516z"/>
	<path fill-rule="evenodd" clip-rule="evenodd" fill="#9F2E2A" d="M131.951,133.934c-0.221-0.222-1.565-1.262-1.565-1.612
		c0-0.35-9.63-0.35-9.63-0.35l1.846,2.235c0,0,0.138,0.47,0.464,0.464c0.326-0.006,8.638-0.135,8.638-0.135L131.951,133.934
		L131.951,133.934z"/>
	<polygon fill-rule="evenodd" clip-rule="evenodd" fill="#9F2E2A" points="306.504,133.213 311.068,131.972 313.236,131.972 
		315.406,126.641 315.989,125.783 315.831,129.977 313.001,133.578 306.504,133.447 306.504,133.213 	"/>
</g>
<g>
	<g>
		<path d="M44.843,259.033c0-1.158-0.449-3.555-1.306-5.898c-0.835-2.279-1.224-3.928-1.224-5.189c0-2.439,1.953-4.488,4.732-4.977
			c0.83-0.09,1.478-0.031,2.066,0.023l0.513,0.035c1.526,0,2.243-0.965,2.584-1.803c0.159-0.58,0.1-1.084-0.21-1.617
			c-0.317-0.379-0.76-0.57-1.373-0.57c-0.76,0-1.689,0.246-3.319,0.877c-5.308,2.092-8.604,5.582-8.604,9.107
			c0,0.826,0.137,2.115,1.203,4.773c0.864,2.137,1.38,4.096,1.38,5.238c0,2.326-1.898,3.58-3.685,3.58
			c-1.081,0-2.335-0.566-3.147-1.096c-0.638-0.424-1.668-0.225-2.236,0.346c-0.411,0.361-0.62,0.822-0.62,1.367
			c0,0.875,0.619,1.295,1.164,1.568c0.711,0.33,2.104,0.561,3.386,0.561c2.063,0,4.909-0.633,6.623-2.055
			C43.716,262.451,44.843,261.017,44.843,259.033z"/>
		<path d="M78.983,242.455c0.301,0.16,0.568,0.242,0.794,0.242c0.263,0,0.42-0.109,0.506-0.203c0.149-0.16,0.212-0.398,0.189-0.699
			c-0.051-1.008,0.044-2.607,0.369-3.904c0.129-0.467,0.063-0.891-0.193-1.227c-0.311-0.41-0.876-0.645-1.604-0.645
			c-1.181,0-1.703,0.66-1.805,2.293c0,0.953,0.074,1.662,0.221,2.15C77.651,241.345,78.163,242.015,78.983,242.455z"/>
		<path d="M115.463,252.494c-0.131,0-0.332,0.051-0.542,0.297c-3.717,4.348-9.705,9.121-11.441,9.121
			c-0.177,0-0.302-0.057-0.396-0.18c-0.205-0.268-0.444-1.105,0.258-3.715c1.218-4.576,4.255-12.932,8.804-21.416
			c0.689-1.234,1.214-2.453,0.09-3.764c-0.232-0.314-0.656-0.426-0.949-0.426c-0.363,0-0.747,0.209-1.056,0.578
			c-0.813,1.02-2.946,5.232-6.491,14.002c-1.235,2.996-2.248,5.863-3.012,8.521c-3.426,3.402-8.631,6.83-11.997,6.83
			c-1.531,0-2.445-1.117-2.445-2.988c0-0.805,0.135-1.658,0.357-2.27c0.048-0.111,0.083-0.156,0.084-0.168
			c0.012,0.006,0.036,0.018,0.073,0.045c0.41,0.338,1.012,0.541,1.61,0.541c2.237,0,4.327-1.061,6.21-3.152
			c1.117-1.234,1.838-3.094,1.838-4.738c0-1.627-0.981-2.764-2.392-2.82c-0.309-0.078-0.406-0.209-0.408-0.275
			c-0.065-0.59-0.532-1.186-1.428-1.186c-2.116,0-5.177,3.965-6.177,5.49c-0.758,1.146-1.454,2.438-1.961,3.656
			c-4.901,4.896-8.663,7.594-10.592,7.594c-0.282,0-0.48-0.08-0.605-0.242c-0.179-0.234-0.319-0.787,0.032-2.082
			c0.981-3.256,2.971-8.203,4.873-11.352c0.655-1.074,0.306-2.057-0.068-2.43c-0.232-0.309-0.523-0.473-0.842-0.473
			c-1.357,0-3.711,3.797-4.423,5.318c-0.161,0.383-0.269,0.705-0.344,1.027c-2.626,2.352-6.961,5.105-8.844,5.838
			c-0.023,0.012-0.044,0.021-0.064,0.029c0.781-1.088,2.779-4.582,2.834-7.934c0-0.795-0.64-3.904-2.506-3.904
			c-0.39,0-0.914,0.133-2.209,0.779c-2.998,1.502-5.832,4.531-6.9,5.752c-0.084,0.084-0.153,0.131-0.182,0.168
			c0.003-0.049,0.016-0.129,0.053-0.25c1.005-3.574,1.692-5.023,2.845-5.977c0.231-0.232,0.772-0.775,0.183-1.451
			c-0.358-0.477-0.956-0.795-1.487-0.795c-0.72,0-1.832,0.506-2.564,1.605c-0.521,0.691-0.803,1.514-1.17,2.881
			c-0.154,0.57-0.3,1.133-0.49,1.873c-0.277,1.072-0.65,2.518-1.288,4.906c-2.738,10.074-5.908,19.259-7.145,22.74l-0.055,0.156
			c-0.424,0.969-0.454,1.736-0.091,2.271c0.445,0.705,0.875,0.762,1.391,0.762c1.152,0,4.819-1.07,6.057-1.521
			c1.323-0.465,1.611-0.988,1.67-1.307c0-0.58-0.755-0.58-1.039-0.58c-0.12,0-0.255,0.004-0.403,0.014
			c-0.596,0.029-1.125,0.043-1.59,0.043c-1.51,0-2.077-0.135-2.237-0.188c-0.271-0.107-0.475-0.262-0.234-1.045
			c0.257-0.82,3.92-11.277,4.091-11.677c0.079-0.238,0.134-0.303,0.127-0.313c0.009,0.002,0.026,0.006,0.042,0.014
			c0.238,0.295,0.597,0.664,0.967,0.736c0.28,0.059,0.634,0.086,1.263-0.057c1.126-0.227,4.313-1.633,5.473-2.35
			c0.977-0.67,1.623-1.113,2.801-1.594c2.479-0.934,6.611-3.363,9.645-5.988c-0.573,1.721-1.23,3.803-1.459,4.609
			c-0.381,1.145-0.3,2.357,0.232,3.422c0.718,1.336,1.515,2.014,2.422,2.014c0.708,0,1.593-0.281,2.953-0.938
			c1.961-0.877,4.981-3.123,7.527-5.58c-0.045,0.354-0.067,0.68-0.067,0.994c0,4.973,3.69,5.359,4.821,5.359
			c4.128,0,9.021-2.955,12.292-6.053c-0.232,1.168-0.319,1.953-0.319,2.363c0,2.172,0.875,3.689,2.127,3.689
			c3.877,0,11.417-6.814,13.716-10.229c0.596-0.928,0.686-1.629,0.686-1.965C115.999,252.705,115.721,252.494,115.463,252.494z
			 M91.962,248.833c0.586,0,1.208,0.613,1.208,1.744c-0.05,2.025-2.461,4.012-4.921,4.012c-0.52,0-0.605-0.096-0.607-0.098
			l0.032-0.113C88.369,252.341,90.75,248.833,91.962,248.833z M62.6,250.845c-0.051,2.291-1.996,5.809-3.287,7.609
			c-0.754,0.984-1.63,1.67-2.927,2.295c-1.61,0.779-3.42,1.322-4.037,1.322c-0.283,0-0.466-0.051-0.542-0.148
			c-0.092-0.121-0.085-0.377,0.02-0.773c1.233-3.865,3.271-6.748,7.03-9.949c1.827-1.541,2.61-1.559,2.642-1.559h0.052
			C61.811,249.642,62.6,249.642,62.6,250.845z"/>
		<path d="M195.851,252.57c-0.251,0-0.516,0.18-0.745,0.508c-1.949,2.785-7.017,8.889-9.38,8.889c-0.201,0-0.369-0.076-0.513-0.234
			c-0.236-0.26-0.606-0.98-0.428-2.896c0.257-3.549,1.405-8.453,2.998-12.799c1.33-3.633,2.793-6.945,3.667-8.926
			c0.337-0.766,0.598-1.355,0.747-1.727c0.394-1.016,0.358-1.639-0.134-2.379c-0.408-0.605-0.838-0.914-1.279-0.914
			c-0.542,0-0.866,0.305-1.19,1.111c-0.383,0.824-1.238,2.99-2.322,5.734c-0.91,2.307-1.982,5.02-3.063,7.674
			c-0.062,0.141-0.092,0.17-0.092,0.17c-0.064,0-0.221-0.059-0.266-0.074c-0.572-0.311-1.192-0.461-1.949-0.461
			c-2.413,0-5.396,1.66-7.983,4.441c-1.81,1.986-3.033,4.227-3.706,5.699c-3.636,4.291-6.48,6.654-8.01,6.654
			c-0.476,0-0.856-0.178-1.132-0.529c-0.434-0.551-0.811-1.789-0.139-4.553c0.518-2.109,1.526-4.969,2.515-7.119
			c0.313-0.727,0.725-1.35,1.087-1.9c0.191-0.291,0.37-0.563,0.529-0.844c0.401-0.914,0.538-1.666-0.083-2.344
			c-0.278-0.371-0.675-0.797-1.271-0.797c-0.502,0-0.876,0.449-1.234,0.934c-0.226,0.404-0.548,0.709-0.912,0.861
			c-0.519,0.234-0.978,0.527-2.524,1.701c-1.526,1.158-5.971,5.416-7.795,7.955c-0.049,0.063-0.091,0.105-0.124,0.137
			c0.001-0.039,0.007-0.086,0.019-0.146c0.503-2.18,1.685-5.881,2.396-7.203c0.512-0.904,0.836-1.254,1.236-1.332
			c0.169-0.033,0.682-0.133,0.682-0.777c0-0.838-0.809-2.449-1.969-2.449c-0.808,0-1.504,0.391-2.477,2.338
			c-0.662,1.287-1.612,4.004-2.545,7.271c-3.679,3.77-8.117,7.559-9.833,7.559c-0.169,0-0.289-0.053-0.379-0.164
			c-0.203-0.25-0.363-0.926,0.025-2.715c0.437-2.09,1.419-6.105,3.121-9.563c0.366-0.73,0.587-1.172,0.744-1.699
			c0.199-0.484,0.116-1.057-0.227-1.568c-0.333-0.496-0.84-0.816-1.293-0.816c-0.592,0-1.097,0.48-1.926,1.834l-0.354,0.553
			c-1.137,1.777-3.254,5.086-5.599,7.814c-3.101,3.453-4.919,5.408-6.225,5.408c-0.174,0-0.303-0.064-0.395-0.195
			c-0.146-0.209-0.404-0.92,0.36-2.984c0.777-2.424,1.406-4.102,1.923-5.133c0.301-0.602,0.695-1.1,1.16-1.688
			c0.35-0.479,1.718-2.645,1.718-3.48c0-0.99-0.869-1.859-1.86-1.859c-0.534,0-0.987,0.332-1.333,0.969
			c-0.889,1.311-2.866,5.229-4.116,8.877c-1.17,3.055-1.739,5.178-1.739,6.492c0,1.734,0.887,3.314,1.86,3.314
			c0.734,0,1.349-0.213,2.443-0.846c2.653-1.65,6.782-5.27,9.535-8.988c0.023-0.029,0.045-0.057,0.065-0.08
			c-0.002,0.006-0.003,0.012-0.005,0.02l-0.08,0.268c-0.304,1.012-0.811,2.707-1.056,4.326c-0.59,2.865-0.109,4.207,0.396,4.828
			c0.337,0.414,0.786,0.633,1.298,0.633c0.66,0,1.813-0.201,3.565-1.16c1.084-0.639,3.852-2.436,7.11-5.84
			c-0.249,1.004-0.497,2.055-0.742,3.148c-0.079,0.336-0.455,2.039-0.012,2.572c0.28,0.371,0.671,0.797,1.216,0.797
			c0.668,0,1.247-0.836,1.776-1.744c0.792-1.465,3.804-6.617,9.316-11.453c0.645-0.59,0.841-0.637,0.846-0.654
			c0.084,0.084-0.148,0.74-0.273,1.092c-0.483,1.332-1.157,3.4-1.622,5.678c-0.679,3.135-0.413,5.656,0.749,7.096
			c0.616,0.764,1.444,1.168,2.396,1.168c1.587,0,4.158-0.811,7.562-4.547c-0.036,0.293-0.055,0.561-0.055,0.805
			c0,2.975,1.671,3.207,2.183,3.207c0.873,0,3.079-0.986,5.262-2.637c1.192-0.922,4.139-3.865,6.201-6.518
			c-0.214,1.176-0.365,2.293-0.514,4.209c-0.122,1.695,0.25,3.186,0.996,3.986c0.425,0.457,0.951,0.689,1.564,0.689
			c4.129,0,9.764-6.568,11.629-10.094c0.344-0.684,0.511-1.318,0.511-1.941C196.358,252.74,196.084,252.57,195.851,252.57z
			 M182.529,250.679c-0.474,1.795-3.398,5.773-5.698,8.131c-2.076,2.129-3.581,2.885-4.239,2.885c-0.392,0-0.616-0.322-0.616-0.885
			c0-0.506,0.202-2.463,2.812-6.375c2.182-3.221,4.609-5.385,6.041-5.385h0.053c1.02,0,1.472,0.465,1.604,0.629
			C182.624,249.818,182.753,250.054,182.529,250.679z"/>
		<path d="M232.482,251.267c-0.047-0.133-0.199-0.354-0.695-0.354c-0.086,0-0.183,0.006-0.303,0.021
			c-0.783,0.154-3.113,0.154-4.365,0.154c-0.052,0-0.092,0-0.122-0.002c0.01-0.039,0.021-0.082,0.028-0.105
			c1.114-3.398,2.704-6.686,3.164-7.613c0.616-1.229,0.839-2.07,0.719-2.754c-0.186-0.68-0.684-1.473-1.529-1.473
			c-0.764,0-1.148,0.281-1.716,1.25c-1.078,1.813-3.807,9.621-4.066,10.447c-0.068,0.246-0.07,0.25-0.513,0.25
			c-0.332,0-2.542-0.012-4.864-0.023c-2.575-0.014-5.29-0.027-5.743-0.027c-0.103,0-0.169-0.004-0.194,0.008
			c0.009-0.053,0.036-0.146,0.099-0.318c0.304-0.758,3.114-7.359,3.439-8.008c0.626-1.313,0.358-2.219,0.024-2.75
			c-0.411-0.65-1.086-0.99-1.54-0.99c-0.984,0-1.464,1.211-1.625,1.619c-0.291,0.824-2.196,5.832-3.22,8.523l-0.594,1.566
			c-0.2,0.402-0.268,0.488-0.617,0.578c-0.22,0.08-2.154,0.799-2.154,1.629c0,0.668,0.602,0.99,1.125,1.197l0.131,0.035
			c0,0,0.032,0.084-0.106,0.396c-0.323,0.76-1.839,5.238-2.328,7.42c-0.375,1.918-0.346,3.012,0.094,3.545
			c0.194,0.234,0.461,0.355,0.793,0.355c0.887,0,1.764-0.688,2.3-1.344c0.099-0.141,0.228-0.301,0.369-0.477
			c0.403-0.5,0.905-1.123,1.114-1.791c0.174-0.523,0.154-1.021-0.057-1.402c-0.164-0.299-0.429-0.498-0.743-0.574
			c-0.235-0.082-0.278-0.098-0.162-0.521c0.309-1.248,1.372-3.752,2.129-5.211c0.24-0.436,0.326-0.469,0.701-0.469
			c0.662,0,3.815-0.084,6.597-0.158c2.218-0.059,4.21-0.109,4.543-0.109c0.043,0,0.069,0.004,0.077,0
			c0.002,0.029-0.002,0.088-0.033,0.201c-0.336,0.844-2.246,7.688-2.491,8.723c-0.115,0.814-0.089,1.965,0.366,2.525
			c0.164,0.203,0.377,0.318,0.632,0.336c0.189,0,0.581-0.064,1.08-0.494c0.718-0.664,2.749-3.467,3.4-5.582
			c0.174-0.455,0.164-0.861-0.03-1.143c-0.141-0.205-0.35-0.336-0.599-0.32c-0.109-0.016-0.143-0.031-0.147-0.031v0.002
			c-0.014-0.027-0.027-0.125,0.029-0.465c0.619-2.168,0.902-3.086,1.125-3.65c0.068-0.201,0.073-0.217,0.498-0.266
			c1.545-0.168,3.8-0.502,5.562-1.508C232.526,251.74,232.546,251.447,232.482,251.267z"/>
		<path d="M243.132,247.095c-0.165-0.109-0.17-0.246-0.163-0.496l0.002-0.109c0-1.01-0.6-1.59-1.646-1.59
			c-0.737,0-1.346,0.316-1.731,0.881c-0.354,0.354-0.569,0.52-1.015,0.52c-0.518,0-1.104,0.068-1.501,0.545
			c-0.535,0.467-0.787,0.982-0.842,1.742c0,0.533-0.198,0.848-0.528,1.367l-0.061,0.098c-0.613,0.775-2.656,3.791-3.483,5.441
			c-0.72,1.723-1.578,4.193-1.58,6.227c0,1.982,1.765,3.748,3.155,3.748c2.284,0,6.072-1.436,9.229-5.471
			c1.802-2.195,2.909-5.615,2.909-7.102C245.877,249.712,244.388,247.988,243.132,247.095z M235.351,262.394
			c-0.691,0-1.155-0.615-1.155-1.584c0-2.992,2.592-7.582,4.468-9.748c0.927-1.133,1.54-1.744,2.127-1.744
			c1.247,0,1.853,1.1,1.853,3.361c0,2.543-2.41,6.504-4.072,8.117C237.555,261.812,236.381,262.394,235.351,262.394z"/>
		<path d="M263.28,255.128c0.598-0.939,0.688-1.633,0.688-1.963c0-0.461-0.278-0.672-0.537-0.672c-0.132,0-0.333,0.051-0.542,0.297
			c-3.717,4.348-9.705,9.121-11.441,9.121c-0.177,0-0.303-0.057-0.397-0.18c-0.205-0.268-0.445-1.105,0.255-3.713
			c1.227-4.592,4.269-12.957,8.808-21.416c0.69-1.232,1.217-2.449,0.09-3.768c-0.234-0.313-0.657-0.424-0.948-0.424
			c-0.358,0-0.752,0.215-1.057,0.578c-0.809,1.012-2.94,5.223-6.494,14.002c-3.225,7.836-4.269,13.236-4.269,14.678
			c0,2.172,0.875,3.689,2.128,3.689C253.438,265.359,260.98,258.544,263.28,255.128z"/>
		<path d="M282.409,257.121l-0.063,0.092c-1.117,1.646-3.44,5.074-7.54,5.074c-2.109,0-5.146-1.699-6.641-2.912
			c-0.103-0.074-0.157-0.139-0.162-0.189c-0.008-0.074,0.049-0.234,0.369-0.586c1.676-2,5.78-6.266,6.546-7.031
			c0.859-0.805,1.754-1.549,2.472-1.549c0.17,0,0.373,0.016,0.556,0.031c0.163,0.014,0.312,0.025,0.413,0.025
			c0.5,0,0.774-0.348,1.038-0.754l0.054-0.139c0.178-0.447,0.476-1.195-0.165-1.896c-0.647-0.648-1.579-0.986-2.165-0.986
			c-0.48,0-0.814,0.188-1.083,0.34c-0.071,0.039-0.141,0.078-0.252,0.139c-0.16,0.123-0.534,0.33-1.247,0.33
			c-0.791,0-2.112-0.129-3.412-0.268c-2.116-0.311-3.375-0.486-4.611-0.486c-1.46,0-2.214,0.822-3.354,2.068
			c-0.626,0.689-0.724,1.709-0.256,2.586c0.392,0.836,1.551,2.291,2.104,2.535c0.462,0.23,0.835,0.209,1.004-0.043
			c0.117-0.178,0.109-0.43-0.021-0.748c-0.462-1.195-0.503-2.205-0.124-2.912c0.188-0.326,0.382-0.574,1.026-0.574
			c0.39,0,1.128,0.061,2.468,0.172c0.817,0.066,1.854,0.152,3.159,0.254c0.182,0.018,0.254,0.041,0.284,0.043
			c-0.015,0.041-0.069,0.146-0.277,0.355l-1.494,1.563c-1.759,1.838-3.578,3.736-5.284,5.646c-0.176,0.178-0.356,0.271-0.472,0.201
			c-0.433-0.369-0.808-0.543-1.199-0.543c-0.001,0-0.002,0-0.002,0c-0.846,0.066-1.787,1.09-1.787,2.451
			c0,0.572-0.054,0.707-0.276,0.932c-0.082,0.109-0.201,0.256-0.341,0.432c-0.967,1.203-1.912,2.447-1.912,3.266
			c0,0.484,0.339,0.818,0.525,1c0.153,0.117,0.369,0.18,0.606,0.18c0.204,0,0.52-0.047,0.892-0.301
			c0.637-0.586,2.378-2.268,2.978-2.922c0.27-0.309,0.409-0.35,0.519-0.35c0.105,0,0.24,0.043,0.411,0.129
			c3.278,1.943,5.868,3.479,8.523,3.479c5.837,0,8.98-6.703,9.317-7.463c0.17-0.365,0.182-0.709,0.032-0.941
			C283.32,256.462,282.714,256.582,282.409,257.121z"/>
		<path d="M306.455,240.056c-0.055,0-0.147,0-0.138-0.027c0.089-0.418-0.042-0.881-0.357-1.27c-0.351-0.434-0.869-0.691-1.388-0.691
			c-0.771,0-1.479,0.945-1.952,1.77c-0.081,0.205-0.173,0.273-0.364,0.273c-1.3,0-3.031,0.334-4.023,0.773
			c-1.064,0.451-1.604,1.143-1.604,2.053c0,0.561,0.368,1.342,0.968,1.342c0.127,0,0.252-0.035,0.378-0.111
			c0.513-0.328,1.99-1.037,3.281-1.145l0.144-0.041c0,0,0.013,0.061-0.07,0.248c-0.36,0.949-4.57,12.506-5.014,14.396l-0.087,0.328
			c-0.311,1.176-0.662,2.506-0.51,3.596c0.472,2.658,2.527,3.809,3.472,3.809c2.068,0,5.421-0.727,8.25-2.348
			c3.324-1.936,10.188-8.008,10.188-14.475C317.627,244.632,313.794,240.466,306.455,240.056z M314.122,248.429
			c0,6.758-9.54,14.072-12.726,14.072c-0.722,0-1.413-0.594-1.673-1.012c-0.247-0.412-0.53-1.533,0.35-4.434
			c0.89-3.072,3.024-9.5,4.772-13.525c0.324-0.646,0.372-0.67,0.689-0.67C308.507,242.962,314.122,244.248,314.122,248.429z"/>
		<path d="M346.933,248.568c1.161,0,1.911-0.477,1.911-1.215c0-0.514-0.356-1.023-0.984-1.398c-0.511-0.283-1.128-0.408-2.06-0.408
			c-1.61,0-3.778,0.887-5.272,2.156c-1.676,1.41-3.367,3.729-3.367,5.734c0,0.342,0.05,0.713,0.147,1.107
			c-2.874,3.178-8.9,7.799-12.928,7.799c-1.531,0-2.447-1.117-2.448-2.988c0-0.813,0.136-1.666,0.359-2.271
			c0.047-0.111,0.081-0.154,0.082-0.166c0.012,0.004,0.037,0.016,0.074,0.043c0.4,0.334,1.016,0.543,1.606,0.543
			c2.243,0,4.333-1.061,6.211-3.152c1.118-1.234,1.841-3.096,1.841-4.738c0-1.652-0.959-2.762-2.395-2.82
			c-0.308-0.078-0.405-0.209-0.408-0.275c-0.066-0.59-0.533-1.186-1.425-1.186c-2.114,0-5.247,4.066-6.177,5.49
			c-2.021,3.055-3.381,6.723-3.381,9.178c0,4.973,3.688,5.359,4.819,5.359c5.111,0,11.532-4.482,14.794-8.822
			c0.044-0.064,0.086-0.129,0.125-0.193c0.354,0.637,0.856,1.412,1.345,2.166l0.217,0.334c0.606,0.938,0.983,1.895,0.983,2.5
			c0,0.441-0.573,0.854-1.099,0.949c-0.569,0.131-1.012,0.021-1.482-0.18c-0.381-0.254-0.65-0.293-1.309-0.074
			c-0.501,0.223-1.007,0.607-1.68,1.277c-0.448,0.389-0.566,0.852-0.618,1.236c0.126,1.006,1.497,1.563,2.397,1.563
			c0.517,0,1.253-0.174,1.915-0.451c1.167-0.441,2.849-1.369,3.67-2.023c0.698-0.537,1.441-1.711,1.441-2.83
			c0-1.207-0.686-2.813-2.043-4.779c-0.91-1.195-1.299-2.1-1.299-3.025C340.499,251.015,344.046,248.568,346.933,248.568z
			 M327.609,248.833c0.585,0,1.206,0.613,1.207,1.744c-0.052,2.025-2.464,4.012-4.922,4.012c-0.517,0-0.604-0.096-0.606-0.098
			l0.033-0.113C324.013,252.341,326.393,248.833,327.609,248.833z"/>
		<path d="M357.093,242.455c0.301,0.16,0.568,0.242,0.795,0.242c0.263,0,0.421-0.109,0.507-0.203
			c0.148-0.16,0.212-0.398,0.188-0.699c-0.051-1.004,0.044-2.602,0.368-3.904c0.13-0.467,0.063-0.891-0.192-1.229
			c-0.311-0.408-0.876-0.643-1.602-0.643c-1.182,0-1.706,0.66-1.81,2.293c0,0.934,0.077,1.662,0.225,2.15
			C355.764,241.345,356.275,242.015,357.093,242.455z"/>
		<path d="M374.648,245.384c-0.992,0-2.821,0.74-4.103,1.432c-1.026,0.564-4.583,2.697-7.237,6.365
			c-0.109,0.148-0.211,0.297-0.313,0.445l-0.104,0.156c-5.161,5.268-9.273,8.289-11.281,8.289c-0.28,0-0.477-0.078-0.601-0.24
			c-0.179-0.234-0.318-0.787,0.032-2.084c0.977-3.25,2.963-8.193,4.869-11.352c0.658-1.074,0.308-2.057-0.066-2.43
			c-0.233-0.309-0.523-0.473-0.84-0.473c-1.366,0-3.715,3.799-4.423,5.318c-0.266,0.633-0.393,1.088-0.452,1.615
			c-0.044,0.293-0.093,0.549-0.308,1.191c-0.598,1.631-1.778,5.344-2.103,6.469c-0.38,1.139-0.299,2.352,0.233,3.422
			c0.894,1.664,1.782,2.014,2.419,2.014c0.712,0,1.598-0.281,2.955-0.938c1.718-0.768,4.243-2.576,6.59-4.705
			c-0.172,0.715-0.259,1.387-0.259,2.004c0,1.656,0.816,3.369,2.181,3.369c1.31,0,3.307-1.596,4.267-2.363l0.144-0.113
			c1.866-1.547,4.44-4.455,4.972-5.086c0.091-0.098,0.258-0.283,0.387-0.412l0,0l-0.045,0.412c-0.104,0.986-0.3,2.82-1.139,6.457
			c-1.02,4.654-2.071,8.162-4.161,11.273c-2.155,3.203-5.012,5.273-7.277,5.273c-1.43,0-2.246-0.57-2.788-1.061
			c-0.749-0.744-1.333-1.092-1.839-1.092c-1.098,0-2.78,1.285-2.78,2.396c0,1.117,1.779,2.023,2.94,2.023
			c0.815,0,1.163,0.092,1.733,0.266c0.573,0.104,1.374,0.166,2.142,0.166c1.835,0,5.381-1.41,7.384-3.299
			c3.675-3.576,6.215-8.584,7.764-15.308c0.101-0.486,0.331-1.574,0.615-2.916c0.645-3.047,1.528-7.219,1.859-8.914
			c0.12-0.482,0.116-1.02-0.019-1.355c-0.035-0.068-0.038-0.09-0.038-0.092c0.001-0.006,0.019-0.057,0.164-0.18
			c1.115-0.672,1.836-1.768,1.836-2.793C377.959,247.55,377.139,245.384,374.648,245.384z M375.106,249.937
			c0,0.277-0.215,0.594-0.435,0.816c-0.15,0.189-0.333,0.234-0.538,0.287c-0.466,0.063-0.894,0.336-1.4,0.9
			c-0.073,0.1-0.199,0.287-0.367,0.539c-0.58,0.871-1.659,2.492-2.899,3.855l-0.402,0.434c-1.106,1.199-4.045,4.387-5.182,4.387
			c-0.105,0-0.294-0.297-0.294-0.938c0-1.941,1.511-5.123,2.908-6.955c1.692-2.148,4.692-4.43,6.917-4.43
			C374.229,248.833,375.106,249.179,375.106,249.937z"/>
		<path d="M405.937,253.734c-0.159-0.488-0.739-0.494-1.175,0.09c-3.443,4.455-7.9,9.217-10.086,9.217
			c-0.478,0-0.859-0.178-1.136-0.529c-0.434-0.553-0.811-1.791-0.141-4.553c0.521-2.121,1.533-4.979,2.523-7.121
			c0.309-0.727,0.719-1.348,1.08-1.898c0.192-0.291,0.371-0.563,0.529-0.844c0.35-0.789,0.58-1.621-0.08-2.346
			c-0.3-0.393-0.686-0.795-1.274-0.795c-0.497,0-0.873,0.447-1.233,0.934c-0.224,0.402-0.546,0.707-0.91,0.861
			c-0.519,0.232-0.978,0.525-2.521,1.699c-1.529,1.16-5.978,5.416-7.801,7.957c-0.048,0.063-0.09,0.107-0.123,0.137
			c0-0.037,0.005-0.086,0.017-0.146c0.499-2.172,1.682-5.871,2.398-7.203c0.509-0.904,0.832-1.254,1.234-1.332
			c0.169-0.033,0.683-0.135,0.683-0.777c0-0.838-0.809-2.449-1.972-2.449c-0.785,0-1.507,0.398-2.476,2.338
			c-0.962,1.875-2.743,7.225-4.38,14.537c-0.079,0.334-0.451,2.037-0.014,2.57c0.258,0.342,0.665,0.797,1.221,0.797
			c0.667,0,1.246-0.836,1.775-1.744c0.794-1.465,3.813-6.621,9.315-11.453c0.644-0.59,0.841-0.637,0.848-0.654
			c0.083,0.082-0.149,0.74-0.273,1.09c-0.392,1.076-1.122,3.242-1.625,5.68c-0.678,3.137-0.411,5.656,0.751,7.096
			c0.616,0.764,1.444,1.168,2.396,1.168c3.443,0,7.665-3.672,11.879-10.332C406.117,254.632,406.083,254.021,405.937,253.734z"/>
	</g>
	<g>
		<path d="M66.891,220.416l-0.774-0.004c-22.899-0.313-36.567-10.283-36.567-26.672c0-10.977,9.498-31.641,45.095-39.457
			l1.265-0.277l4.555,19.406l-1.436,0.191c-11.085,1.48-26.698,8.414-26.698,19.195c0,7.189,7.393,10.025,12.845,10.285l0.069-5.518
			c0-1.219-0.043-2.41-0.085-3.59c-0.042-1.189-0.084-2.369-0.084-3.57v-1.313h21.192l-0.035,1.346
			c-0.086,3.318-0.086,5.307-0.086,7.824v6.234c0,1.85,0.056,5.086,0.105,7.941c0.036,2.098,0.067,3.928,0.067,4.695v0.996
			l-0.959,0.27C83.101,219.031,75.318,220.416,66.891,220.416L66.891,220.416z M73.945,157.134
			c-32.93,7.654-41.769,26.541-41.769,36.605c0,14.766,12.7,23.754,33.972,24.045l0.743,0.002c7.2,0,13.851-1.025,16.791-1.68
			c-0.012-0.92-0.034-2.209-0.058-3.623c-0.049-2.865-0.105-6.113-0.105-7.986v-6.234c0-2.178,0-3.963,0.055-6.543H67.716
			c0.016,0.721,0.042,1.439,0.067,2.162c0.043,1.211,0.087,2.432,0.087,3.699l-0.101,8.111l-1.264,0.031
			c-0.167,0.006-0.333,0.008-0.503,0.008c-3.832,0-7.701-1.064-10.616-2.922c-3.719-2.369-5.685-5.832-5.685-10.012
			c0-12.52,16.326-19.691,27.547-21.583L73.945,157.134L73.945,157.134z"/>
		<g>
			<path d="M136.331,222.39l-0.753-1.246c-0.961-1.588-5.666-8.508-10.217-15.199c-4.397-6.465-8.938-13.139-10.399-15.445v1.104
				c0,3.529,0.264,24.693,0.415,25.959l0.176,1.471l-1.479,0.014H93.483l0.254-1.529c0.126-0.762,0.256-6.377,0.158-28.8
				l-0.007-8.899c0-3.094-0.18-21.063-0.41-22.51l-0.241-1.52h1.539c11.052,0,23.429,0.143,31.428,1.208
				c17.032,2.19,20.608,9.767,20.608,15.735c0,6.459-3.303,11.978-10.367,17.278c1.451,1.554,3.866,4.062,6.391,6.681
				c4.528,4.699,9.211,9.559,10.515,11.162l0.859,1.057L136.331,222.39L136.331,222.39z M117.691,189.883
				c1.805,2.767,5.881,8.761,9.842,14.585c3.981,5.854,7.778,11.436,9.513,14.092l13.369-10.08
				c-1.936-2.146-5.902-6.262-9.472-9.967c-3.254-3.377-6.328-6.566-7.445-7.832l-0.971-1.098l1.197-0.844
				c7.137-5.035,10.46-10.121,10.46-16.008c0-8.905-9.964-12.056-18.323-13.131c-7.519-1-19.085-1.172-29.682-1.186
				c0.227,5.119,0.335,20.344,0.335,21.402l0.007,8.888c0.067,15.233,0.039,24.224-0.09,27.714h16.265
				c-0.175-5.307-0.361-22.451-0.361-24.816V167.56l1.326,0.014C125.7,167.688,127,174.085,127,176.83
				C127,182.93,121.181,187.62,117.691,189.883L117.691,189.883z M114.961,170.242v18.236l0.236-0.141
				c2.152-1.272,9.175-5.864,9.175-11.508C124.373,171.916,119.527,170.492,114.961,170.242L114.961,170.242z"/>
		</g>
		<path d="M179.507,219.046h-22.556l0.062-1.373c0.168-3.699,0.257-23.738,0.257-25.902v-9.219c0-0.664-0.054-5.605-0.112-10.971
			c-0.071-6.568-0.146-13.359-0.146-14.48v-1.313h22.512l-0.076,1.385c-0.081,1.48-0.34,15.139-0.34,25.545v9.227
			c0,8.529,0.256,23.736,0.341,25.73L179.507,219.046L179.507,219.046z M159.682,216.419h17.102
			c-0.107-4.418-0.303-17.008-0.303-24.475v-9.227c0-8.924,0.191-20.258,0.298-24.303h-17.131c0.021,2.575,0.082,8.124,0.137,13.137
			c0.059,5.379,0.112,10.334,0.112,11v9.219C159.897,193.83,159.826,210.576,159.682,216.419L159.682,216.419z"/>
		<path d="M352.055,212.115c-1.109-2.256-5.834-12.799-10.837-23.959c-5.379-12-11.475-25.6-14.515-32.117l-0.354-0.758h-2.42
			l-0.385,0.623c-1.426,2.313-3.595,5.875-6.003,9.831c-4.476,7.35-9.897,16.254-12.747,20.742
			c-0.688-1.136-1.569-2.591-2.582-4.264c-4.84-7.992-12.939-21.369-16.826-27.678l-0.385-0.624h-2.434l-0.351,0.768
			c-2.81,6.153-9.538,23.088-15.124,37.277c-0.536-1.195-1.079-2.406-1.627-3.629c-5.408-12.065-11.538-25.741-14.592-32.289
			l-0.354-0.758h-2.424l-0.385,0.624c-1.42,2.304-3.579,5.851-5.977,9.789c-4.482,7.364-9.915,16.288-12.768,20.783
			c-0.735-1.212-1.691-2.79-2.792-4.606c-5.093-8.408-12.789-21.114-16.622-27.335l-0.385-0.624h-2.427l-0.351,0.768
			c-3.563,7.796-13.392,32.838-19.263,47.799c-2.324,5.922-4.003,10.201-4.408,11.154l-0.538,1.268l19.328,7.164l0.465-1.213
			c0.944-2.465,3.515-11.318,5.782-19.131c0.932-3.211,1.831-6.307,2.505-8.568c3.133,5.236,9.986,16.236,15.441,24.455l0.39,0.588
			h2.232l0.394-0.551c5.285-7.398,13.593-20.057,16.988-25.236c0.703,1.842,1.713,4.512,2.815,7.424
			c2.853,7.535,6.402,16.916,8.052,21.037l0.507,1.268l9.289-4.139l10.974,4.066l0.464-1.213c0.942-2.463,3.512-11.311,5.777-19.117
			c0.934-3.215,1.834-6.316,2.509-8.58c3.131,5.236,9.981,16.234,15.436,24.453l0.39,0.588h2.234l0.394-0.551
			c5.275-7.387,13.72-20.246,16.989-25.236c0.718,1.881,1.756,4.623,2.89,7.617c2.826,7.467,6.343,16.758,7.977,20.844l0.507,1.268
			l19.745-8.797L352.055,212.115z M258.513,218.623c-1.788-4.549-4.946-12.893-7.531-19.721c-1.884-4.979-3.372-8.91-3.752-9.844
			l-0.934-2.297l-1.376,2.063c-0.162,0.243-0.572,0.868-1.172,1.783c-3.093,4.719-11.102,16.936-16.499,24.572
			c-6.62-10.035-14.926-23.518-16.201-25.904l-1.449-2.713l-0.957,2.924c-0.587,1.793-1.894,6.293-3.406,11.502
			c-1.867,6.434-4.133,14.236-5.282,17.697l-14.295-5.299c0.755-1.889,2.15-5.445,3.917-9.949
			c5.533-14.097,14.583-37.158,18.554-46.205c4.06,6.615,11.335,18.627,15.801,26c1.779,2.937,3.182,5.251,3.883,6.404l1.076,1.768
			l1.142-1.727c2.3-3.479,8.76-14.09,13.95-22.617c1.983-3.258,3.803-6.247,5.175-8.485c3.213,6.952,8.877,19.589,13.914,30.828
			c0.921,2.054,1.817,4.054,2.679,5.974c-0.97,2.469-1.891,4.814-2.729,6.949c-2.357,6.006-4.061,10.344-4.47,11.307l-0.539,1.268
			l4.837,1.793L258.513,218.623z M266.282,215.162l-4.795-1.775c0.764-1.908,2.182-5.521,3.979-10.1l18.493-46.06
			c4.111,6.7,11.484,18.877,16.008,26.347c1.68,2.774,2.999,4.954,3.673,6.063l1.075,1.768l1.143-1.727
			c2.297-3.473,8.747-14.064,13.93-22.576c1.992-3.271,3.821-6.275,5.199-8.523c3.197,6.921,8.827,19.481,13.835,30.652
			c4.569,10.193,8.594,19.174,10.291,22.813l-14.771,6.58c-1.771-4.512-4.897-12.77-7.456-19.527
			c-1.923-5.08-3.442-9.092-3.827-10.038l-0.937-2.298l-1.374,2.066c-0.148,0.223-0.504,0.765-1.021,1.555
			c-2.814,4.295-11.15,17.018-16.649,24.799c-6.62-10.033-14.922-23.518-16.195-25.903l-1.45-2.716l-0.957,2.926
			c-0.588,1.795-1.896,6.299-3.41,11.516c-1.865,6.428-4.129,14.225-5.277,17.684l-5.98-2.217L266.282,215.162z"/>
		<path d="M351.12,179.046l-10.485-19.314l12.955-5.831l5.627,21.444L351.12,179.046L351.12,179.046z M344.294,160.966l7.964,14.671
			l3.856-1.763l-4.279-16.303L344.294,160.966L344.294,160.966z"/>
		<g>
			<path d="M365.154,220.716l-2.746-17.41l1.586,0.049c0.402,0.012,0.809,0.018,1.214,0.018c8.451,0,14.766-2.516,14.766-4.768
				c0-0.986-1.829-2.182-7.702-5.518c-6.074-3.467-12.28-8.038-12.28-15.66c0-9.735,12.451-21.164,35.528-23.17l1.216-0.105
				l2.745,16.99h-1.542c-9.368,0-14.741,1.45-14.741,3.979c0,1.172,2.808,2.551,7.058,4.641l0.496,0.244
				c4.09,2.012,12.6,6.199,12.6,14.928c0,9.869-9.675,22.504-36.944,25.639L365.154,220.716L365.154,220.716z M365.493,206
				l1.862,11.811c23.038-2.977,33.368-13.563,33.368-22.877c0-7.094-7.243-10.656-11.133-12.57l-0.495-0.244
				c-5.677-2.79-8.525-4.19-8.525-6.998c0-4.245,5.182-6.407,15.827-6.594l-1.864-11.537c-20.739,2.139-31.914,12.033-31.914,20.438
				c0,6.262,5.265,10.129,10.953,13.377c7.008,3.98,9.029,5.242,9.029,7.801C382.6,203.408,374.042,205.945,365.493,206L365.493,206
				z"/>
		</g>
	</g>
</g>
</svg>
