<svg width="483" height="223" viewBox="0 0 483 223" fill="none" xmlns="http://www.w3.org/2000/svg">
<path fill-rule="evenodd" clip-rule="evenodd" d="M197 98C190.373 98 185 103.373 185 110V211C185 217.627 190.373 223 197 223H278.578C273.7 221.977 268.8 218.187 263.74 214.198C262.158 212.952 260.523 211.691 258.856 210.408C242.827 198.057 224 183.552 224 158.406C224 130.647 255.397 110.961 281.083 137.648C306.77 110.961 338.167 130.647 338.167 158.406C338.167 183.552 319.34 198.057 303.31 210.408C301.644 211.691 300.008 212.952 298.427 214.198C293.367 218.187 288.466 221.977 283.589 223H365C371.627 223 377 217.627 377 211V110C377 103.373 371.627 98 365 98H197Z" fill="black"/>
<path d="M386 211V155.76C386 145.099 398.864 139.731 406.441 147.23L462.257 202.471C469.877 210.012 464.537 223 453.816 223H398C391.373 223 386 217.627 386 211Z" fill="black"/>
<path d="M84 223H28.7596C18.0987 223 12.7312 210.136 20.2305 202.559L75.4709 146.743C83.0123 139.123 96 144.463 96 155.184V211C96 217.627 90.6274 223 84 223Z" fill="black"/>
<path d="M131.803 9.14956C136.533 4.17312 144.467 4.17312 149.197 9.14955L191.815 53.9823C199.08 61.6251 193.662 74.25 183.117 74.25H97.8826C87.3376 74.25 81.9199 61.6252 89.1851 53.9823L131.803 9.14956Z" fill="black"/>
<path fill-rule="evenodd" clip-rule="evenodd" d="M117 83C110.373 83 105 88.3726 105 95V211C105 217.627 110.373 223 117 223H164C170.627 223 176 217.627 176 211V95C176 88.3726 170.627 83 164 83H117ZM166 123.332V138.417C166 139.818 165.08 140.938 163.64 141.258L144.6 145.46C142.8 145.82 142.48 146.18 142.48 148.181V184.794C142.48 196.558 133.52 201 127.6 201C120.84 201 116 196.598 116 190.356C116 184.234 119.8 180.032 127.96 178.352L134.32 176.991C135.96 176.671 136.8 175.471 136.8 173.63L136.56 129.134C136.56 126.733 138.04 125.292 140.76 124.692L162 120.091C164.16 119.61 166 121.091 166 123.332Z" fill="black"/>
</svg>
