<svg width="468" height="223" viewBox="0 0 468 223" fill="none" xmlns="http://www.w3.org/2000/svg">
<path fill-rule="evenodd" clip-rule="evenodd" d="M183 98C180.239 98 178 100.239 178 103V218C178 220.761 180.239 223 183 223H271.578C266.7 221.977 261.8 218.187 256.74 214.198C255.158 212.952 253.523 211.691 251.856 210.408C235.827 198.057 217 183.552 217 158.406C217 130.647 248.397 110.961 274.083 137.648C299.77 110.961 331.167 130.647 331.167 158.406C331.167 183.552 312.34 198.057 296.31 210.408C294.644 211.691 293.008 212.952 291.427 214.198C286.367 218.187 281.466 221.977 276.589 223H365C367.761 223 370 220.761 370 218V103C370 100.239 367.761 98 365 98H183Z" fill="black"/>
<path d="M466.575 214.544L387.456 135.425C386.76 134.739 385.877 134.274 384.918 134.089C383.959 133.904 382.966 134.008 382.066 134.387C381.163 134.758 380.39 135.388 379.844 136.197C379.299 137.007 379.005 137.96 379 138.936V218.055C379 219.367 379.521 220.624 380.448 221.552C381.376 222.479 382.633 223 383.945 223H463.064C464.04 222.995 464.993 222.701 465.803 222.156C466.612 221.61 467.242 220.837 467.613 219.934C467.992 219.034 468.096 218.041 467.911 217.082C467.726 216.123 467.261 215.24 466.575 214.544Z" fill="black"/>
<path d="M80.5442 135.425L1.42506 214.544C0.738916 215.24 0.274111 216.123 0.0892978 217.082C-0.0955151 218.041 0.00794513 219.034 0.386626 219.934C0.757596 220.837 1.38757 221.61 2.19716 222.156C3.00674 222.701 3.95972 222.995 4.93597 223H84.0551C85.3665 223 86.6243 222.479 87.5517 221.552C88.479 220.624 89 219.367 89 218.055V138.936C88.9951 137.96 88.7014 137.007 88.1558 136.197C87.6102 135.388 86.8372 134.758 85.9341 134.387C85.0336 134.008 84.0411 133.904 83.0818 134.089C82.1226 134.274 81.2395 134.739 80.5442 135.425Z" fill="black"/>
<path d="M129.876 3.81232C131.847 1.7388 135.153 1.7388 137.124 3.81231L196.053 65.8051C199.081 68.9896 196.823 74.25 192.43 74.25H74.5704C70.1767 74.25 67.9194 68.9896 70.9465 65.8051L129.876 3.81232Z" fill="black"/>
<path fill-rule="evenodd" clip-rule="evenodd" d="M103 83C100.239 83 98 85.2386 98 88V218C98 220.761 100.239 223 103 223H164C166.761 223 169 220.761 169 218V88C169 85.2386 166.761 83 164 83H103ZM114.051 158.378C114.381 153.336 116.585 148.233 120.593 143.207C122.796 140.443 126.566 136.682 131.812 132.026C130.936 126.49 130.584 122.716 130.729 120.496C131.024 116.038 131.659 112.4 132.619 109.679C133.858 106.116 135.931 103.001 138.779 100.426C139.952 99.3942 140.914 98.9499 141.787 99.0045C144.257 99.1677 146.072 101.888 147.345 107.326C148.274 111.333 148.654 114.765 148.474 117.53C148.167 122.234 147.019 126.726 145.067 130.875C143.092 135.051 140.422 138.594 137.125 141.413L138.313 150.304C138.847 150.264 139.357 150.261 139.845 150.292C144.072 150.569 147.478 152.555 149.961 156.196C152.226 159.516 153.231 163.335 152.955 167.547C152.729 170.976 151.611 174.022 149.627 176.601C147.758 179.043 145.359 180.769 142.499 181.724L143.616 188.964C144.017 192.177 144.138 194.996 143.98 197.376C143.777 200.499 142.29 203.078 139.551 205.051C138.418 205.864 137.211 206.486 135.954 206.896C134.424 207.394 132.781 207.59 131.081 207.479C128.09 207.283 125.461 206.257 123.265 204.424C120.761 202.332 119.598 199.718 119.798 196.656C119.928 194.607 120.696 192.781 122.066 191.229C123.608 189.476 125.49 188.637 127.563 188.774C129.594 188.908 131.237 189.781 132.445 191.366C133.581 192.814 134.09 194.565 133.964 196.568C133.831 198.65 133.023 200.276 131.58 201.395C130.836 201.974 129.985 202.377 129.047 202.593C129.844 203.062 130.749 203.327 131.777 203.394C134.138 203.547 135.998 202.82 137.491 201.161C138.872 199.623 139.653 197.575 139.818 195.072C139.938 193.261 139.799 191.05 139.406 188.503C139.144 186.938 138.865 185.359 138.584 183.773L138.412 182.799C136.766 183.021 134.982 183.073 133.086 182.949C127.443 182.58 122.661 179.712 118.876 174.425C115.304 169.464 113.682 164.062 114.051 158.378ZM141.758 176.601C143.764 175.407 145.202 170.517 145.202 167.606C145.202 164.299 142.822 161.541 139.689 160.94L141.758 176.601ZM137.067 116.083C135.843 119.316 135.13 122.397 134.945 125.236C134.841 126.779 134.941 128.137 135.234 129.288C137.327 127.679 139.204 125.621 140.819 123.155C142.827 120.096 143.94 117.125 144.121 114.322C144.336 111.014 143.089 110.485 141.837 110.402C141.567 110.384 141.309 110.418 141.046 110.502C140.089 110.815 138.618 112.037 137.067 116.083ZM134.189 151.135L133.371 144.398C124.977 150.995 120.492 157.835 120.036 164.748C119.798 168.399 121.123 171.575 124.079 174.457C126.909 177.231 130.22 178.757 133.929 179.001C135.374 179.095 136.703 179.016 137.891 178.77L135.661 161.399C133.279 162.457 131.608 164.836 131.608 167.608C131.608 168.914 131.895 170.024 132.486 170.947C132.802 171.443 133.143 171.902 133.456 172.321C134.172 173.283 134.736 174.04 134.487 174.581C134.134 175.361 131.912 175.47 129.985 174.036C128.809 173.158 127.785 172.082 127.04 170.871C125.609 168.598 124.975 166.005 125.159 163.175C125.337 160.447 126.391 157.882 128.288 155.557C129.935 153.558 131.916 152.073 134.189 151.135Z" fill="black"/>
</svg>
