<svg width="468" height="223" viewBox="0 0 468 223" fill="none" xmlns="http://www.w3.org/2000/svg">
<path fill-rule="evenodd" clip-rule="evenodd" d="M183 98C180.239 98 178 100.239 178 103V218C178 220.761 180.239 223 183 223H271.578C266.7 221.977 261.8 218.187 256.74 214.198C255.158 212.952 253.523 211.691 251.856 210.408C235.827 198.057 217 183.552 217 158.406C217 130.647 248.397 110.961 274.083 137.648C299.77 110.961 331.167 130.647 331.167 158.406C331.167 183.552 312.34 198.057 296.31 210.408C294.644 211.691 293.008 212.952 291.427 214.198C286.367 218.187 281.466 221.977 276.589 223H365C367.761 223 370 220.761 370 218V103C370 100.239 367.761 98 365 98H183Z" fill="black"/>
<path d="M466.575 214.544L387.456 135.425C386.76 134.739 385.877 134.274 384.918 134.089C383.959 133.904 382.966 134.008 382.066 134.387C381.163 134.758 380.39 135.388 379.844 136.197C379.299 137.007 379.005 137.96 379 138.936V218.055C379 219.367 379.521 220.624 380.448 221.552C381.376 222.479 382.633 223 383.945 223H463.064C464.04 222.995 464.993 222.701 465.803 222.156C466.612 221.61 467.242 220.837 467.613 219.934C467.992 219.034 468.096 218.041 467.911 217.082C467.726 216.123 467.261 215.24 466.575 214.544Z" fill="black"/>
<path d="M80.5442 135.425L1.42506 214.544C0.738916 215.24 0.274111 216.123 0.0892978 217.082C-0.0955151 218.041 0.00794513 219.034 0.386626 219.934C0.757596 220.837 1.38757 221.61 2.19716 222.156C3.00674 222.701 3.95972 222.995 4.93597 223H84.0551C85.3665 223 86.6243 222.479 87.5517 221.552C88.479 220.624 89 219.367 89 218.055V138.936C88.9951 137.96 88.7014 137.007 88.1558 136.197C87.6102 135.388 86.8372 134.758 85.9341 134.387C85.0336 134.008 84.0411 133.904 83.0818 134.089C82.1226 134.274 81.2395 134.739 80.5442 135.425Z" fill="black"/>
<path d="M129.876 3.81232C131.847 1.7388 135.153 1.7388 137.124 3.81231L196.053 65.8051C199.081 68.9896 196.823 74.25 192.43 74.25H74.5704C70.1767 74.25 67.9194 68.9896 70.9465 65.8051L129.876 3.81232Z" fill="black"/>
<path fill-rule="evenodd" clip-rule="evenodd" d="M103 83C100.239 83 98 85.2386 98 88V218C98 220.761 100.239 223 103 223H164C166.761 223 169 220.761 169 218V88C169 85.2386 166.761 83 164 83H103ZM159 123.332V138.417C159 139.818 158.08 140.938 156.64 141.258L137.6 145.46C135.8 145.82 135.48 146.18 135.48 148.181V184.794C135.48 196.558 126.52 201 120.6 201C113.84 201 109 196.598 109 190.356C109 184.234 112.8 180.032 120.96 178.352L127.32 176.991C128.96 176.671 129.8 175.471 129.8 173.63L129.56 129.134C129.56 126.733 131.04 125.292 133.76 124.692L155 120.091C157.16 119.61 159 121.091 159 123.332Z" fill="black"/>
</svg>
