<svg width="173" height="19" viewBox="0 0 173 19" fill="none" xmlns="http://www.w3.org/2000/svg">
<path d="M4.8 0.24006H0.5V18.1101H11.89V14.1701H4.8V0.24006ZM27.28 6.04903e-05C26.0578 -0.0409611 24.8401 0.167525 23.7011 0.612791C22.5622 1.05806 21.5259 1.73076 20.6556 2.58985C19.7853 3.44893 19.0992 4.47636 18.6392 5.60943C18.1791 6.7425 17.9549 7.95743 17.98 9.18006C17.9549 10.4027 18.1791 11.6176 18.6392 12.7507C19.0992 13.8838 19.7853 14.9112 20.6556 15.7703C21.5259 16.6294 22.5622 17.3021 23.7011 17.7473C24.8401 18.1926 26.0578 18.4011 27.28 18.3601C28.5022 18.4011 29.7199 18.1926 30.8589 17.7473C31.9978 17.3021 33.0341 16.6294 33.9044 15.7703C34.7747 14.9112 35.4608 13.8838 35.9208 12.7507C36.3809 11.6176 36.6051 10.4027 36.58 9.18006C36.6051 7.95743 36.3809 6.7425 35.9208 5.60943C35.4608 4.47636 34.7747 3.44893 33.9044 2.58985C33.0341 1.73076 31.9978 1.05806 30.8589 0.612791C29.7199 0.167525 28.5022 -0.0409611 27.28 6.04903e-05ZM27.28 14.4101C26.606 14.4024 25.9404 14.2603 25.3221 13.9919C24.7038 13.7234 24.1454 13.3342 23.6797 12.847C23.2139 12.3598 22.8501 11.7845 22.6098 11.1548C22.3694 10.5251 22.2573 9.8537 22.28 9.18006C22.28 7.85398 22.8068 6.58221 23.7445 5.64453C24.6821 4.70684 25.9539 4.18006 27.28 4.18006C28.6061 4.18006 29.8779 4.70684 30.8155 5.64453C31.7532 6.58221 32.28 7.85398 32.28 9.18006C32.3027 9.8537 32.1906 10.5251 31.9502 11.1548C31.7099 11.7845 31.3461 12.3598 30.8803 12.847C30.4146 13.3342 29.8562 13.7234 29.2379 13.9919C28.6196 14.2603 27.954 14.4024 27.28 14.4101ZM50.29 10.8201L46.06 0.24006H41.57L48.8 18.1101H51.8L59.02 0.24006H54.54L50.29 10.8201Z" fill="black"/>
<path d="M93.61 10.8201L89.38 0.24006H84.9L92.12 18.1101H95.12L102.35 0.24006H97.86L93.61 10.8201ZM159.09 5.68006L155.69 0.24006H150.74L156.93 10.1201V18.1101H161.23V10.1201L167.42 0.24006H162.47L159.09 5.68006ZM172.2 16.4901C172.19 16.8833 172.065 17.265 171.839 17.5872C171.613 17.9095 171.298 18.1581 170.931 18.3018C170.565 18.4455 170.165 18.4781 169.78 18.3953C169.395 18.3126 169.044 18.1183 168.769 17.8367C168.494 17.5551 168.309 17.1988 168.236 16.8122C168.162 16.4257 168.205 16.0261 168.357 15.6636C168.51 15.301 168.767 14.9916 169.094 14.774C169.422 14.5563 169.807 14.4402 170.2 14.4401C170.467 14.44 170.731 14.4933 170.977 14.5969C171.223 14.7006 171.446 14.8524 171.632 15.0434C171.819 15.2345 171.965 15.4609 172.062 15.7093C172.16 15.9578 172.207 16.2232 172.2 16.4901ZM171.84 16.4901C171.828 16.1602 171.719 15.8411 171.527 15.5726C171.335 15.3041 171.068 15.0982 170.76 14.9805C170.452 14.8628 170.115 14.8386 169.793 14.9108C169.471 14.9831 169.178 15.1486 168.949 15.3868C168.72 15.6249 168.567 15.9251 168.508 16.2499C168.449 16.5747 168.487 16.9097 168.617 17.213C168.748 17.5163 168.964 17.7745 169.24 17.9554C169.517 18.1363 169.84 18.2318 170.17 18.2301C170.395 18.2316 170.618 18.1875 170.825 18.1003C171.032 18.0131 171.22 17.8848 171.376 17.723C171.532 17.5612 171.654 17.3694 171.733 17.1592C171.813 16.949 171.849 16.7247 171.84 16.5001V16.4901ZM170.52 16.6801L171 17.4101H170.5L170.11 16.7901H169.87V17.4101H169.5V15.5001H170.27C170.355 15.4932 170.441 15.5038 170.522 15.5312C170.603 15.5585 170.677 15.602 170.741 15.6591C170.805 15.7162 170.856 15.7856 170.892 15.8631C170.928 15.9406 170.948 16.0246 170.95 16.1101C170.955 16.2443 170.913 16.376 170.831 16.4821C170.748 16.5883 170.631 16.6619 170.5 16.6901L170.52 16.6801ZM170.25 16.3901C170.286 16.3945 170.323 16.3909 170.357 16.3797C170.392 16.3685 170.424 16.3499 170.45 16.3251C170.477 16.3003 170.498 16.2701 170.512 16.2364C170.525 16.2027 170.532 16.1664 170.53 16.1301C170.53 16.0945 170.523 16.0594 170.509 16.0269C170.494 15.9945 170.473 15.9654 170.447 15.9418C170.42 15.9181 170.389 15.9004 170.355 15.8897C170.321 15.8791 170.285 15.8758 170.25 15.8801H169.88V16.4001L170.25 16.3901ZM141.07 10.8001C141.75 10.5506 142.366 10.1507 142.87 9.63006C143.832 8.57663 144.358 7.19667 144.34 5.77006C144.355 4.34689 143.83 2.97096 142.87 1.92006C142.245 1.31571 141.497 0.85289 140.678 0.563015C139.858 0.273139 138.986 0.162995 138.12 0.24006H131.26V18.1401H135.57V11.2901H136.17L141.95 18.1401H147.34L141.07 10.8001ZM139.62 6.80006C139.38 7.05006 139 7.31006 137.96 7.31006H135.56V4.19006H137.96C138.96 4.19006 139.38 4.45006 139.62 4.69006C139.891 4.98378 140.038 5.37068 140.03 5.77006C140.04 6.1621 139.897 6.5426 139.63 6.83006L139.62 6.80006ZM78.06 14.1601H70.97V10.8901H76.14V6.94006H70.97V4.16006H77.82V0.21006H66.66V18.1101H78.06V14.1601ZM121.47 14.1601H114.37V10.8901H119.54V6.94006H114.37V4.16006H121.23V0.21006H110.06V18.1101H121.47V14.1601Z" fill="black"/>
</svg>
