<svg xmlns="http://www.w3.org/2000/svg" viewBox="0 0 171.7 18.56"><defs><style>.cls-1{fill:#29cb5f}.cls-2{fill:#514f4e}</style></defs><title>Asset 1</title><g id="Layer_2" data-name="Layer 2"><g id="Base_Design" data-name="Base Design"><path class="cls-1" d="M4.3.24H0v17.87h11.39v-3.94H4.3V.24zM26.78 0a9 9 0 0 0-9.3 9.18 9 9 0 0 0 9.3 9.18 9 9 0 0 0 9.3-9.18A9 9 0 0 0 26.78 0zm0 14.41a5.06 5.06 0 0 1-5-5.23 5 5 0 1 1 10 0 5.06 5.06 0 0 1-5 5.23zm23.01-3.59L45.56.24h-4.49l7.23 17.87h3L58.52.24h-4.48l-4.25 10.58z"/><path class="cls-2" d="M93.11 10.82L88.88.24H84.4l7.22 17.87h3L101.85.24h-4.49l-4.25 10.58zm65.48-5.14l-3.4-5.44h-4.95l6.19 9.88v7.99h4.3v-7.99l6.19-9.88h-4.95l-3.38 5.44zm13.11 10.81a2 2 0 1 1-2-2.05 2 2 0 0 1 2 2.05zm-.36 0a1.68 1.68 0 1 0-1.67 1.74 1.66 1.66 0 0 0 1.67-1.73zm-1.32.19l.48.73h-.5l-.39-.62h-.24v.62H169V15.5h.77a.63.63 0 0 1 .68.61.57.57 0 0 1-.45.58zm-.27-.29a.25.25 0 0 0 .28-.26.25.25 0 0 0-.28-.25h-.37v.52zm-29.18-5.59a4.81 4.81 0 0 0 1.8-1.17 5.62 5.62 0 0 0 1.47-3.86 5.62 5.62 0 0 0-1.47-3.85 6.06 6.06 0 0 0-4.75-1.68h-6.86v17.9h4.31v-6.85h.6l5.78 6.85h5.39zm-1.45-4c-.24.25-.62.51-1.66.51h-2.4V4.19h2.4c1 0 1.42.26 1.66.5a1.55 1.55 0 0 1 .41 1.08 1.5 1.5 0 0 1-.4 1.06zm-61.56 7.36h-7.09v-3.27h5.17V6.94h-5.17V4.16h6.85V.21H66.16v17.9h11.4v-3.95zm43.41 0h-7.1v-3.27h5.17V6.94h-5.17V4.16h6.86V.21h-11.17v17.9h11.41v-3.95z"/></g></g></svg>