<svg width="383" height="159" viewBox="0 0 383 159" fill="none" xmlns="http://www.w3.org/2000/svg">
<path fill-rule="evenodd" clip-rule="evenodd" d="M152.75 47.273C152.567 47.31 151.967 47.418 151.417 47.513C150.353 47.698 149.297 47.956 148.75 48.166C148.567 48.236 148.079 48.423 147.667 48.58C147.254 48.738 146.767 48.948 146.583 49.047C146.4 49.145 146.025 49.344 145.75 49.488C145.475 49.632 145.213 49.795 145.167 49.85C145.121 49.905 144.782 50.139 144.414 50.369C143.179 51.143 140.849 53.6 140.024 55C139.45 55.975 138.667 57.697 138.667 57.986C138.667 58.088 138.599 58.301 138.516 58.461C138.261 58.952 138.01 60.014 137.75 61.707C136.739 68.279 139.293 73.11 145.417 76.208C146.684 76.85 148.156 77.5 148.34 77.5C148.431 77.5 148.635 77.566 148.794 77.647C149.224 77.866 149.818 78.098 150.75 78.412C151.208 78.566 151.733 78.754 151.917 78.829C152.1 78.905 152.512 79.06 152.833 79.175C159.201 81.451 160.995 84.056 159.027 88.167C158.313 89.657 156.99 90.743 155.183 91.319C154.496 91.539 150.974 91.559 150.262 91.348C148.775 90.907 147.85 90.587 147.26 90.309C146.899 90.139 146.549 90 146.481 90C146.413 90 145.808 89.749 145.137 89.443C144.043 88.943 143.162 88.624 141.572 88.152C139.43 87.516 136.896 89.005 136.155 91.333C135.855 92.277 135.835 95.069 136.127 95.36C136.241 95.474 136.333 95.669 136.333 95.794C136.333 96.047 137.024 97.021 137.667 97.673C139.248 99.279 141.941 100.518 145.75 101.392C150.83 102.559 155.975 102.602 159.167 101.506C164.402 99.708 168.027 96.248 169.913 91.25C171.182 87.886 171.287 83.611 170.202 79.5C169.171 75.594 165.439 72.114 159.75 69.754C158.549 69.256 158.338 69.169 157.958 69.013C157.752 68.929 157.021 68.661 156.333 68.417C155.646 68.173 154.933 67.909 154.75 67.831C154.567 67.753 154.117 67.564 153.75 67.411C150.698 66.136 149.121 64.817 148.922 63.374C148.423 59.743 151.92 57.201 156.197 58.085C157.661 58.388 158.07 58.527 159.917 59.35C164.386 61.341 166.412 61.068 168.081 58.25C170.063 54.902 168.596 51.454 164.331 49.44C160.83 47.787 155.317 46.755 152.75 47.273ZM38.944 47.778C38.2 48.036 36.481 49.509 35.667 50.586C34.799 51.735 33.083 53.93 32.999 54C32.944 54.046 32.678 54.383 32.408 54.75C32.138 55.116 31.777 55.566 31.607 55.75C31.436 55.933 30.991 56.496 30.618 57C30.245 57.504 29.896 57.954 29.843 58C29.751 58.078 27.685 60.668 26.583 62.087C26.308 62.44 25.858 63.005 25.583 63.34C25.308 63.676 24.858 64.238 24.583 64.59C23.424 66.073 19.271 71.284 18.942 71.669C18.745 71.899 18.361 72.387 18.089 72.752C17.532 73.502 13.143 79.038 13.005 79.167C12.955 79.212 12.694 79.55 12.425 79.917C12.155 80.283 11.891 80.621 11.838 80.667C11.785 80.712 11.331 81.275 10.829 81.916C9.543 83.559 8.924 84.333 8.028 85.42C7.875 85.605 7.526 86.055 7.253 86.42C6.979 86.785 6.629 87.233 6.474 87.417C6.318 87.6 5.659 88.425 5.009 89.25C4.358 90.075 3.734 90.865 3.621 91.005C3.509 91.145 3.123 91.633 2.764 92.088C2.406 92.544 1.834 93.217 1.494 93.583C1.154 93.95 0.739 94.569 0.573 94.958C0.406 95.348 0.209 95.667 0.135 95.667C0.061 95.667 0 96.229 0 96.917C0 97.604 0.067 98.167 0.149 98.167C0.23 98.167 0.349 98.373 0.412 98.625C1.279 102.1 6.388 102.583 8.742 99.413C9.382 98.551 14.369 92.275 14.5 92.167C14.556 92.121 14.822 91.783 15.091 91.417C15.361 91.05 15.622 90.712 15.671 90.667C15.72 90.621 16.807 89.271 18.087 87.667C19.366 86.063 20.454 84.712 20.506 84.667C20.557 84.621 20.953 84.119 21.385 83.551C21.818 82.983 22.267 82.421 22.384 82.301C22.5 82.181 22.817 81.783 23.088 81.417C23.36 81.05 23.622 80.712 23.671 80.667C23.747 80.596 28.036 75.246 28.613 74.503C29.313 73.599 31.595 70.735 31.668 70.667C31.718 70.621 32.167 70.058 32.667 69.417C33.166 68.775 33.616 68.212 33.667 68.167C33.717 68.121 34.156 67.577 34.643 66.958C36.118 65.084 36 63.78 36 81.895C36 100.174 35.89 98.782 37.449 100.255C40.033 102.696 42.522 101.931 45.874 97.667C47.416 95.705 47.677 95.378 47.919 95.106C48.012 95.002 48.35 94.579 48.669 94.167C48.989 93.755 49.344 93.305 49.458 93.167C49.573 93.029 51.099 91.117 52.851 88.917C56.641 84.155 57.033 83.667 57.25 83.431C57.342 83.331 57.638 82.95 57.908 82.583C58.178 82.217 58.443 81.879 58.496 81.833C58.549 81.787 59.816 80.212 61.311 78.333C62.805 76.454 64.153 74.766 64.306 74.582C64.458 74.399 64.994 73.724 65.496 73.082C65.998 72.441 66.451 71.879 66.503 71.833C66.556 71.787 67.63 70.456 68.892 68.875C70.153 67.294 71.253 66 71.337 66C71.427 66 71.508 72.53 71.536 82.042L71.583 98.083L72.073 98.973C74.219 102.872 79.826 102.034 80.811 97.667C81.05 96.607 80.997 52.031 80.756 51C80.565 50.184 79.582 48.697 79.083 48.47C78.854 48.365 78.667 48.229 78.667 48.167C78.667 47.91 77.173 47.585 76.083 47.603C73.719 47.644 73.651 47.708 67.416 55.726C67.142 56.08 66.481 56.905 65.948 57.56C64.88 58.872 64.837 58.925 64 60C63.256 60.955 62.959 61.323 62.744 61.56C62.649 61.665 62.35 62.05 62.08 62.417C61.55 63.136 60.308 64.697 60.158 64.833C60.107 64.879 59.845 65.217 59.575 65.583C59.306 65.95 59.046 66.287 58.997 66.333C58.948 66.379 58.498 66.941 57.996 67.582C57.494 68.224 56.992 68.861 56.881 68.999C55.988 70.109 52.704 74.236 50.249 77.333C48.615 79.396 46.934 81.514 46.514 82.041C45.054 83.872 45.167 85.131 45.167 66.991C45.167 51.141 45.163 50.974 44.821 50.222C43.848 48.088 41.213 46.992 38.944 47.778ZM179.5 47.603C178.286 47.829 176.927 48.93 176.353 50.154L175.917 51.083L175.872 74.072C175.821 100.484 175.711 98.786 177.579 100.369C178.566 101.206 181.715 101.763 182.083 101.167C182.14 101.075 182.321 101 182.486 101C182.922 101 184.234 99.785 184.691 98.96L185.083 98.25V50.559L184.604 49.821C183.465 48.068 181.527 47.225 179.5 47.603ZM196.083 47.604C194.874 47.915 193.539 48.965 192.946 50.072L192.583 50.75V98.25L193.066 99C195.175 102.281 199.571 102.155 201.387 98.761L201.75 98.083V50.917L201.37 50.152C200.43 48.265 198.023 47.105 196.083 47.604ZM226.75 47.612C225.639 47.771 225.101 48.165 223.354 50.094C222.861 50.638 221.811 51.758 221.021 52.584C220.23 53.409 218.721 55.021 217.667 56.167C216.612 57.313 215.525 58.476 215.25 58.752C214.975 59.028 214.075 59.997 213.25 60.906C212.425 61.815 211.487 62.834 211.167 63.169C204.821 69.802 204.619 70.071 204.612 71.907C204.605 74.002 204.817 74.312 208.663 77.833C209.714 78.796 210.848 79.846 211.182 80.167C212.183 81.128 215.839 84.549 216.194 84.857C216.376 85.015 217.474 86.03 218.634 87.113C219.795 88.197 221.149 89.458 221.645 89.917C222.14 90.375 223.088 91.275 223.751 91.917C224.414 92.558 225.622 93.683 226.434 94.417C227.246 95.15 228.55 96.357 229.331 97.098C233.528 101.086 234.008 101.395 236 101.395C240.302 101.395 242.089 96.473 238.937 93.304C238.274 92.637 235.108 89.662 232.762 87.5C232.215 86.996 231.492 86.321 231.155 86C230.819 85.679 229.615 84.554 228.48 83.5C226.731 81.876 223.959 79.283 223.668 79C223.621 78.954 223.096 78.471 222.5 77.926C221.904 77.381 220.698 76.256 219.82 75.426C215.636 71.472 215.919 71.839 216.53 71.156C217.351 70.238 218.814 68.662 220.157 67.25C220.941 66.424 222.446 64.812 223.5 63.666C224.554 62.521 225.642 61.358 225.917 61.082C226.192 60.806 227.066 59.868 227.86 58.998C228.653 58.128 229.835 56.854 230.486 56.167C232.373 54.172 232.85 52.77 232.239 51.013C231.427 48.683 229.145 47.269 226.75 47.612ZM368.868 94.67C366.309 95.043 363.549 96.754 361.96 98.953C357.23 105.498 360.392 114.249 368.25 116.36C369.898 116.802 373.087 116.607 374.667 115.967C377.925 114.647 380.019 112.493 381.357 109.083C384.322 101.529 377.312 93.44 368.868 94.67ZM373.593 96.846C375.395 97.585 376.129 98.037 377.217 99.077C377.953 99.78 379.132 101.543 379.278 102.159C379.334 102.392 379.434 102.658 379.501 102.75C380.479 104.088 379.82 108.535 378.313 110.766C373.11 118.474 360.285 113.504 361.819 104.375C362.024 103.154 362.099 102.903 362.631 101.667C364.054 98.361 367.393 96.431 371.426 96.582C372.348 96.616 373.323 96.735 373.593 96.846ZM365.944 99.944C365.883 100.006 365.833 102.592 365.833 105.691V111.327L366.224 111.425C366.439 111.479 366.908 111.499 367.266 111.47L367.917 111.417L367.963 109.119C368.008 106.917 368.025 106.816 368.38 106.685C369.698 106.2 371.093 107.276 372.312 109.717C373.138 111.371 373.3 111.501 374.531 111.497C375.803 111.494 375.887 111.389 375.362 110.466C374.137 108.315 373.542 107.425 373.029 106.974C372.395 106.418 372.394 106.42 373.453 105.839C376.124 104.373 375.838 100.814 372.984 99.995C372.354 99.815 366.119 99.77 365.944 99.944ZM372.28 101.935C372.975 102.454 372.975 103.879 372.28 104.399C371.71 104.824 368.679 105.022 368.244 104.662C367.949 104.417 367.902 102.327 368.18 101.808C368.449 101.307 371.569 101.403 372.28 101.935ZM88.833 103.759C85.092 104.286 79.406 106.262 78.5 107.35C78.454 107.405 78.079 107.66 77.667 107.917C77.254 108.173 76.879 108.428 76.833 108.483C76.787 108.538 76.376 108.883 75.919 109.25C73.097 111.515 68.5 117.915 68.5 119.58C68.5 119.646 68.396 119.936 68.27 120.225C66.467 124.333 65.852 132.678 66.998 137.5C67.074 137.821 67.229 138.496 67.341 139C67.883 141.42 69.041 144.279 70.292 146.283C70.59 146.76 70.833 147.204 70.833 147.269C70.833 147.589 72.908 150.105 74.402 151.596C78.471 155.659 83.288 157.941 89.042 158.53C90.027 158.631 90.833 158.778 90.833 158.857C90.833 159.046 93.454 159.043 93.571 158.853C93.621 158.773 94.319 158.657 95.123 158.596C96.949 158.458 98.736 158.09 101 157.387C102.427 156.943 105.589 155.288 106.917 154.289C108.487 153.107 111.833 149.787 111.833 149.41C111.833 149.356 112.013 149.072 112.233 148.781C112.98 147.79 114.667 144.551 114.667 144.107C114.667 143.967 114.733 143.812 114.813 143.762C114.894 143.712 115 143.502 115.05 143.294C115.099 143.087 115.264 142.504 115.416 142C116.541 138.277 117 133.028 116.398 130.761C115.736 128.264 114.843 127.298 112.488 126.528C111.606 126.239 96.3 126.26 95.5 126.55C92.292 127.716 91.111 131.192 92.893 134.222C93.515 135.28 93.914 135.575 95.716 136.31C96.022 136.435 97.627 136.501 100.383 136.503C102.693 136.504 104.687 136.571 104.813 136.651C105.493 137.082 104.028 142.677 103.019 143.5C102.963 143.546 102.631 143.939 102.281 144.374C101.022 145.942 98.523 147.389 95.917 148.059C90.071 149.564 83.987 147.295 80.985 142.491C78.266 138.14 77.21 131.111 78.519 126.083C78.615 125.717 78.77 125.117 78.864 124.75C79.201 123.441 80.574 120.313 80.864 120.194C80.939 120.164 81 120.059 81 119.962C81 119.474 83.42 116.915 84.74 116.007C88.562 113.377 95.234 113.137 100 115.457C101.1 115.993 102.728 117.001 102.806 117.195C102.836 117.271 102.935 117.333 103.025 117.333C103.115 117.333 103.428 117.508 103.719 117.722C104.948 118.622 106.929 119.335 108.186 119.331C112.76 119.315 114.338 113.457 110.756 109.792C109.937 108.954 108.151 107.5 107.94 107.5C107.899 107.5 107.427 107.255 106.891 106.955C106.069 106.495 104.81 105.936 103.25 105.34C99.445 103.886 92.971 103.176 88.833 103.759ZM220.5 103.943C216.496 105.335 215.963 110.557 219.625 112.525L220.5 112.995L230.917 113.083L231.003 133.667C231.1 156.599 231.003 154.911 232.304 156.358C234.61 158.924 238.474 158.365 240.01 155.244L240.417 154.417L240.583 113.083L245.417 113C249.971 112.921 250.289 112.896 250.917 112.556C254.201 110.778 254.22 106.054 250.949 104.216C250.429 103.924 221.307 103.662 220.5 103.943ZM177.917 104.203C176.021 104.853 175.065 105.874 174.569 107.777C174.217 109.129 174.217 152.871 174.569 154.223C175.659 158.408 180.277 159.3 183.042 155.859C183.202 155.66 183.333 155.4 183.333 155.281C183.333 155.163 183.427 154.973 183.542 154.858C183.705 154.695 183.768 150.231 183.833 134.117L183.917 113.583L192.833 113.533C199.164 113.496 202.012 113.538 202.653 113.676C208.121 114.851 208.192 122.223 202.75 123.654C202.365 123.756 199.549 123.854 196.083 123.887C189.711 123.947 189.459 123.977 188.36 124.793C185.922 126.605 186.012 130.041 188.562 132.451C193.684 137.292 195.209 138.723 196 139.43C196.504 139.881 197.145 140.475 197.424 140.75C197.703 141.025 198.379 141.662 198.927 142.167C200.582 143.689 204.356 147.211 204.998 147.833C205.33 148.154 206.343 149.092 207.249 149.917C208.156 150.742 209.17 151.679 209.504 152C214.698 156.993 215.351 157.508 216.892 157.828C221.919 158.872 224.407 152.82 220.385 149.335C220.036 149.032 218.818 147.915 217.68 146.851C216.541 145.787 214.966 144.317 214.181 143.583C213.396 142.85 212.115 141.647 211.335 140.911C210.555 140.174 209.023 138.749 207.931 137.744C203.245 133.431 202.882 133 203.943 133C206.857 133 211.877 129.781 213.874 126.631C219.468 117.809 214.464 106.086 204.333 104.283C203.044 104.053 178.569 103.979 177.917 104.203ZM313.583 104.23C312.179 104.623 311.06 105.61 310.477 106.971C310.179 107.665 310.167 108.647 310.169 131.139L310.172 154.583L310.632 155.496C312.286 158.781 317.464 158.853 318.898 155.61C319.026 155.32 319.195 154.933 319.274 154.75C319.352 154.567 319.454 147.254 319.5 138.5C319.559 127.179 319.636 122.583 319.765 122.583C319.865 122.583 320.722 123.558 321.67 124.75C322.618 125.942 324.586 128.417 326.044 130.25C327.502 132.083 328.821 133.733 328.975 133.917C329.129 134.1 329.479 134.55 329.752 134.917C330.025 135.283 330.288 135.621 330.336 135.667C330.385 135.712 330.834 136.275 331.333 136.917C331.833 137.558 332.285 138.121 332.338 138.167C332.391 138.212 332.655 138.549 332.925 138.913C333.413 139.572 333.925 140.207 334.256 140.564C334.351 140.666 334.651 141.05 334.922 141.417C335.193 141.783 335.454 142.121 335.501 142.167C335.593 142.255 338.05 145.343 339.81 147.583C340.387 148.317 340.948 149.029 341.058 149.167C341.167 149.304 341.878 150.204 342.637 151.167C343.396 152.129 344.295 153.247 344.634 153.651C344.973 154.055 345.363 154.548 345.5 154.747C347.881 158.192 351.033 159.064 353.442 156.943C355.291 155.316 355.195 156.807 355.135 130.5L355.083 107.75L354.7 106.917C353.21 103.68 349.308 103.063 346.933 105.688C345.688 107.065 345.763 105.965 345.708 123.625C345.669 136.024 345.614 139.498 345.454 139.493C345.342 139.489 344.613 138.66 343.833 137.651C343.054 136.642 342.243 135.614 342.03 135.366C341.817 135.119 341.442 134.654 341.196 134.334C340.951 134.013 340 132.814 339.083 131.668C336.875 128.909 336.941 128.99 336.748 128.773C336.655 128.669 336.106 127.983 335.529 127.25C334.952 126.517 334.203 125.586 333.865 125.182C333.527 124.778 333.137 124.287 333 124.089C332.699 123.659 330.808 121.285 330.671 121.167C330.618 121.121 330.314 120.746 329.996 120.334C329.413 119.58 329.128 119.224 328.667 118.674C328.529 118.51 327.629 117.385 326.667 116.173C325.704 114.961 323.506 112.205 321.782 110.047C320.057 107.89 318.535 105.954 318.398 105.746C317.568 104.478 315.276 103.757 313.583 104.23Z" fill="black"/>
<path fill-rule="evenodd" clip-rule="evenodd" d="M141.585 104.365C141.332 104.852 140.92 105.625 140.669 106.083C140.17 106.995 139.17 108.874 137.873 111.333C137.414 112.204 136.779 113.404 136.462 114C136.145 114.596 135.451 115.908 134.921 116.917C134.391 117.925 133.752 119.125 133.501 119.583C133.25 120.042 132.612 121.242 132.083 122.25C131.554 123.258 130.82 124.646 130.452 125.333C130.083 126.021 129.412 127.296 128.961 128.167C128.509 129.037 127.915 130.162 127.641 130.667C127.367 131.171 126.689 132.446 126.133 133.5C125.578 134.554 124.917 135.792 124.666 136.25C124.414 136.708 123.702 138.058 123.082 139.25C122.462 140.442 121.768 141.754 121.539 142.167C121.107 142.947 120.441 144.203 118.667 147.583C118.089 148.683 117.412 149.958 117.162 150.417C116.912 150.875 116.258 152.112 115.708 153.167C115.158 154.221 114.539 155.383 114.332 155.75C113.503 157.217 113.303 157.68 113.394 157.918C113.514 158.231 171.167 158.304 171.167 157.991C171.167 157.894 170.95 157.426 170.686 156.949C170.422 156.473 169.832 155.371 169.376 154.5C168.319 152.484 167.251 150.482 166.664 149.417C166.412 148.958 165.832 147.871 165.376 147C164.919 146.129 164.264 144.892 163.921 144.25C163.577 143.608 162.956 142.446 162.542 141.667C162.128 140.887 161.582 139.875 161.33 139.417C161.077 138.958 160.478 137.833 159.997 136.917C159.516 136 158.904 134.854 158.637 134.37C158.37 133.886 157.829 132.874 157.436 132.12C156.463 130.258 155.224 127.935 154.637 126.87C154.37 126.386 153.83 125.374 153.436 124.62C152.763 123.33 152.069 122.032 150.7 119.5C150.141 118.466 149.405 117.079 147.96 114.333C147.599 113.646 147.056 112.633 146.756 112.083C146.184 111.039 145.481 109.719 144.002 106.917C141.971 103.068 142.158 103.264 141.585 104.365Z" fill="black"/>
<path fill-rule="evenodd" clip-rule="evenodd" d="M179.033 0.764967C176.764 1.89497 175.789 5.36197 176.493 9.79497C177.277 14.728 182.629 15.601 184.323 11.073C184.881 9.58197 184.784 4.16297 184.178 2.91697C183.119 0.740967 180.923 -0.177033 179.033 0.764967ZM193.167 5.35097C191.808 5.59597 190.752 6.28397 189.631 7.65297C189.063 8.34797 188.272 9.28497 187.874 9.73497C184.867 13.138 186.079 17.258 190.083 17.245C192.042 17.239 192.73 16.827 194.667 14.504C195.079 14.009 195.697 13.292 196.039 12.911C199.123 9.47797 197.274 4.61197 193.167 5.35097ZM165.542 5.68397C163.141 6.87297 162.887 10.049 164.984 12.664C168.28 16.774 169.472 17.563 171.927 17.256C174.028 16.993 175.497 14.491 174.809 12.345C174.37 10.976 174.212 10.754 171.028 7.03597C169.689 5.47097 167.207 4.85997 165.542 5.68397ZM159.583 17.446C156.016 18.568 155.383 22.738 158.491 24.643C159.519 25.274 160.533 25.535 163.743 25.999C164.381 26.091 165.026 26.205 165.177 26.253C165.329 26.301 165.896 26.237 166.439 26.11C171.522 24.925 170.895 18.836 165.604 17.997C165.134 17.922 164.075 17.737 163.25 17.585C161.032 17.177 160.503 17.157 159.583 17.446ZM178.833 17.481C172.85 19.055 171.073 26.255 175.652 30.372C178.619 33.039 182.928 32.838 185.933 29.892C191.125 24.8 185.879 15.628 178.833 17.481ZM199.5 17.327C199.179 17.396 198.129 17.586 197.167 17.748C193.821 18.313 192.535 18.958 191.667 20.507C189.989 23.5 193.064 26.984 196.693 26.202C197.183 26.096 198.258 25.892 199.083 25.749C203.022 25.063 204.667 23.718 204.667 21.183C204.667 19.185 202.132 16.935 200.167 17.189C200.121 17.195 199.821 17.257 199.5 17.327ZM166.185 28.514C165.361 28.844 164.557 29.251 163.75 29.748C163.292 30.031 162.631 30.409 162.282 30.589C156.408 33.621 159.264 41.26 165.19 38.364C167.401 37.283 169.922 35.724 170.427 35.124C173.273 31.742 170.177 26.917 166.185 28.514ZM191.932 28.596C188.531 29.841 188.655 34.302 192.144 36.279C192.569 36.52 193.254 36.921 193.667 37.171C197.772 39.656 200.637 39.489 201.852 36.695C202.912 34.259 201.891 32.469 198.185 30.267C194.914 28.324 193.618 27.978 191.932 28.596ZM173.996 35.141C172.552 35.863 171.82 36.697 171.27 38.25C170.976 39.079 170.893 39.296 170.505 40.25C169.332 43.136 169.437 45.419 170.81 46.885C172.657 48.858 176.057 48.032 177.385 45.289C178.022 43.973 179.123 40.857 179.341 39.75C179.969 36.574 176.723 33.776 173.996 35.141ZM183.641 35.314C181.694 36.548 181.227 38.804 182.309 41.75C182.612 42.575 182.981 43.625 183.128 44.083C184.19 47.388 187.154 48.905 189.618 47.404C191.355 46.345 191.855 43.724 190.824 41.083C190.752 40.9 190.496 40.188 190.254 39.5C189.3 36.789 188.745 36.004 187.272 35.283C185.969 34.645 184.679 34.656 183.641 35.314Z" fill="black"/>
<path fill-rule="evenodd" clip-rule="evenodd" d="M155.083 47.171C159.833 47.496 163.732 48.682 166.324 50.59C168.318 52.057 169.253 54.081 168.852 56.06C168.029 60.115 165.154 61.644 161.417 60.012C161.233 59.932 160.708 59.702 160.25 59.5C157.888 58.463 157.396 58.285 157.133 58.373C157.014 58.413 157.217 58.538 157.583 58.651C158.289 58.869 158.527 58.961 159.568 59.42C163.133 60.992 164.491 61.203 166.076 60.428C167.059 59.947 168.044 58.942 168.457 58C168.598 57.679 168.792 57.245 168.888 57.035C169.247 56.254 169.102 54 168.628 53C167.647 50.928 164.99 49.094 161.5 48.08C158.917 47.329 157.786 47.147 155.333 47.088L153.083 47.034L155.083 47.171ZM39.833 47.38C38.02 47.72 37.181 48.391 34.783 51.417C33.766 52.7 31.652 55.362 30.085 57.333C28.518 59.304 26.464 61.892 25.52 63.083C24.577 64.275 23.68 65.4 23.527 65.584C23.375 65.768 22.839 66.443 22.337 67.084C21.835 67.725 21.381 68.287 21.329 68.333C21.276 68.379 21.012 68.717 20.742 69.083C20.473 69.45 20.212 69.787 20.164 69.833C20.115 69.879 19.665 70.441 19.163 71.082C18.661 71.724 18.125 72.399 17.972 72.582C17.819 72.766 17.014 73.779 16.183 74.833C15.352 75.887 14.612 76.825 14.539 76.917C14.465 77.008 13.785 77.871 13.027 78.833C12.269 79.796 11.394 80.89 11.083 81.265C10.772 81.639 9.965 82.652 9.29 83.515C7.919 85.268 5.953 87.741 5.527 88.25C5.373 88.433 4.577 89.446 3.758 90.5C2.938 91.554 1.876 92.846 1.396 93.371C0.917 93.896 0.472 94.496 0.407 94.704C0.342 94.913 0.214 95.131 0.124 95.189C0.033 95.247 -0.002 95.397 0.044 95.522C0.096 95.659 0.239 95.497 0.405 95.114C0.557 94.764 0.966 94.164 1.316 93.78C1.877 93.165 3.008 91.773 4.583 89.759C4.858 89.408 5.389 88.737 5.763 88.268C6.137 87.8 7.186 86.479 8.094 85.333C9.002 84.188 9.788 83.212 9.84 83.167C9.892 83.121 10.155 82.783 10.425 82.417C11.005 81.631 12.864 79.287 13.003 79.167C13.056 79.121 13.619 78.408 14.255 77.583C14.891 76.758 15.505 75.985 15.62 75.866C15.734 75.746 16.182 75.183 16.615 74.616C17.047 74.048 17.443 73.546 17.493 73.5C17.544 73.454 17.807 73.117 18.078 72.75C18.349 72.383 18.667 71.985 18.783 71.866C18.9 71.746 19.349 71.183 19.781 70.616C20.214 70.048 20.613 69.546 20.668 69.5C20.723 69.454 20.988 69.117 21.258 68.75C21.527 68.383 21.786 68.046 21.832 68C21.942 67.892 23.731 65.649 27.417 61C29.053 58.938 31.147 56.301 32.07 55.141C32.994 53.981 34.35 52.265 35.083 51.327C37.534 48.195 38.882 47.347 41.085 47.553C42.76 47.71 44.001 48.56 44.751 50.065L45.167 50.899V66.949C45.167 85.655 44.958 84.208 47.209 81.129C47.462 80.783 47.812 80.332 47.988 80.125C48.249 79.82 49.411 78.355 52.054 75C52.162 74.862 52.558 74.375 52.934 73.917C53.31 73.458 54.476 71.996 55.525 70.667C57.316 68.398 59.356 65.821 63.574 60.5C64.555 59.262 65.484 58.1 65.637 57.916C65.791 57.732 66.327 57.057 66.829 56.416C67.331 55.775 67.782 55.212 67.83 55.167C67.879 55.121 68.139 54.783 68.409 54.417C68.678 54.05 68.942 53.712 68.995 53.667C69.048 53.621 69.5 53.058 70 52.417C70.5 51.775 70.952 51.212 71.005 51.167C71.058 51.121 71.322 50.783 71.592 50.417C74.718 46.174 79.376 46.559 80.815 51.178C81.132 52.197 81.071 96.71 80.751 97.94C79.514 102.688 72.885 102.671 71.663 97.917L71.534 97.417L71.517 97.866C71.508 98.113 71.679 98.652 71.897 99.063C73.948 102.92 79.655 102.385 80.92 98.217C81.249 97.135 81.292 52.051 80.966 50.936C80.297 48.649 78.645 47.417 76.25 47.417C74.002 47.417 73.157 47.962 71.081 50.75C70.809 51.117 70.547 51.454 70.501 51.5C70.394 51.605 68.468 54.02 65.914 57.25C64.826 58.625 62.955 60.987 61.755 62.5C60.555 64.012 58.89 66.112 58.054 67.167C57.219 68.221 55.702 70.133 54.683 71.417C53.664 72.7 52.325 74.387 51.708 75.167C51.091 75.946 50.544 76.621 50.493 76.667C50.441 76.712 50.178 77.049 49.908 77.413C49.638 77.778 49.292 78.228 49.139 78.413C48.872 78.737 47.861 79.982 47.445 80.5C47.335 80.637 47.021 81.05 46.747 81.417C45.893 82.562 45.688 82.751 45.589 82.485C45.541 82.356 45.483 75.2 45.459 66.583L45.417 50.917L45.054 50.167C44.101 48.2 41.855 47.001 39.833 47.38ZM151.083 47.333C150.9 47.412 150.511 47.482 150.218 47.488C149.926 47.495 149.64 47.575 149.583 47.667C149.527 47.758 149.351 47.833 149.193 47.833C147.523 47.833 143.56 50.49 140.906 53.39C140.183 54.18 138.771 56.842 138.33 58.25C138.215 58.617 138.063 59.067 137.993 59.25C137.428 60.733 137.221 65.551 137.642 67.417C138.534 71.365 141.263 74.472 145.667 76.552C147.643 77.486 148.829 78 149.007 78C149.097 78 149.301 78.07 149.461 78.156C149.62 78.242 150.313 78.511 151 78.754C157.775 81.145 159.385 82.389 159.406 85.25C159.441 89.778 155.35 92.376 150.25 91.064C149.7 90.923 149.063 90.774 148.833 90.733L148.417 90.66L148.833 90.845C152.681 92.557 157.543 91.247 159.045 88.093C161.06 83.864 158.926 81.171 151.667 78.779C151.254 78.643 150.692 78.44 150.417 78.328C150.142 78.217 149.767 78.068 149.583 77.999C141.8 75.046 138.788 72.182 137.754 66.75C136.633 60.862 139.66 53.349 144.334 50.42C144.746 50.162 145.121 49.905 145.167 49.85C145.212 49.795 145.512 49.606 145.833 49.429C147.646 48.431 148.784 48.039 151.417 47.505C152.668 47.251 152.793 47.199 152.167 47.195C151.754 47.192 151.267 47.255 151.083 47.333ZM196.417 47.373C194.343 47.72 192.947 49.021 192.401 51.115C192.05 52.463 192.055 96.694 192.407 97.858C193.759 102.338 199.589 102.959 201.559 98.833L201.917 98.083V74.417C201.917 47.698 202.046 50.204 200.588 48.746C199.445 47.603 197.961 47.115 196.417 47.373ZM179.181 47.444C177.752 47.752 175.659 50.1 175.874 51.154C175.903 51.299 176.029 51.06 176.152 50.623C177.378 46.307 183.914 46.6 185.092 51.024C185.42 52.258 185.439 96.646 185.112 97.833C183.846 102.424 177.68 102.648 176.11 98.161C175.939 97.674 175.846 97.547 175.841 97.793C175.837 98.001 175.986 98.488 176.172 98.877C177.909 102.497 183.099 102.49 184.936 98.865L185.417 97.917L185.461 74.758C185.509 49.32 185.561 50.733 184.527 49.333C183.355 47.745 181.244 46.999 179.181 47.444ZM226.434 47.445C225.71 47.568 224.863 48.171 223.75 49.357C223.2 49.944 221.813 51.426 220.667 52.652C219.521 53.878 218.22 55.264 217.775 55.732C217.331 56.2 216.393 57.219 215.692 57.996C214.991 58.773 214.192 59.636 213.917 59.913C213.642 60.19 212.554 61.354 211.5 62.5C210.446 63.646 208.865 65.333 207.986 66.25C204.356 70.035 203.881 70.912 204.402 72.866C204.835 74.49 205.574 75.369 209.417 78.836C210.058 79.415 211.187 80.457 211.925 81.152C212.663 81.848 214.194 83.279 215.327 84.333C218.117 86.929 218.124 86.935 219.435 88.167C220.07 88.763 221.597 90.188 222.828 91.333C224.06 92.479 225.343 93.679 225.679 94C226.015 94.321 226.694 94.953 227.187 95.406C227.68 95.858 229.039 97.124 230.207 98.22C233.075 100.911 233.945 101.517 234.895 101.49C235.09 101.484 234.875 101.357 234.417 101.207C233.958 101.057 233.546 100.889 233.5 100.833C233.454 100.777 233.246 100.614 233.038 100.472C232.714 100.251 229.997 97.787 228.929 96.747C228.739 96.562 228.058 95.93 227.417 95.343C226.775 94.756 225.126 93.22 223.752 91.93C222.379 90.639 220.804 89.172 220.252 88.67C219.701 88.168 218.575 87.118 217.75 86.336C216.925 85.554 215.725 84.434 215.083 83.848C214.442 83.261 212.867 81.794 211.583 80.587C210.3 79.379 208.8 77.982 208.25 77.482C204.928 74.462 204.595 73.961 204.591 71.979C204.587 70.197 204.875 69.766 208.926 65.5C209.666 64.721 210.754 63.566 211.344 62.933C212.558 61.631 212.374 61.829 215.181 58.827C216.334 57.593 217.604 56.223 218.003 55.782C218.401 55.341 219.07 54.623 219.489 54.187C219.907 53.75 221.112 52.461 222.167 51.321C225.554 47.661 225.673 47.581 227.705 47.588C228.492 47.591 229.072 47.672 229.196 47.796C229.308 47.908 229.523 48 229.674 48C230.138 48 231.582 49.538 232.053 50.535C233.143 52.839 232.618 54.043 228.75 58.096C227.32 59.595 223.75 63.405 223.153 64.071C222.748 64.522 222.154 65.166 221.833 65.501C218.264 69.232 216.167 71.558 216.167 71.786C216.167 71.938 220.029 75.678 221.981 77.417C222.496 77.875 223.631 78.925 224.503 79.75C225.376 80.575 227.1 82.188 228.334 83.333C229.569 84.479 230.776 85.604 231.017 85.833C231.257 86.063 231.897 86.662 232.439 87.167C232.982 87.671 234.398 88.992 235.588 90.103C236.777 91.214 238.105 92.451 238.538 92.853C242.038 96.098 240.789 100.853 236.266 101.506L235.25 101.652L236.348 101.585C239.025 101.421 240.667 99.667 240.667 96.972C240.667 94.663 239.829 93.617 233.083 87.503C232.442 86.922 231.278 85.839 230.498 85.098C229.718 84.357 228.148 82.887 227.01 81.833C225.872 80.779 224.644 79.634 224.281 79.289C223.918 78.944 222.789 77.894 221.773 76.956C220.756 76.018 219.329 74.688 218.603 74C215.958 71.498 216.167 71.777 216.625 71.351C216.785 71.201 217.329 70.627 217.833 70.075C219.479 68.272 222.57 64.951 223.168 64.344C223.49 64.017 224.503 62.933 225.418 61.936C226.334 60.938 227.346 59.845 227.667 59.507C232.298 54.629 232.667 54.104 232.667 52.387C232.667 49.266 229.678 46.896 226.434 47.445ZM88.439 47.617C88.381 47.675 88.333 55.159 88.333 64.248C88.333 81.141 88.385 82.713 88.998 84.583L89.162 85.083L89.088 84.5C89.047 84.179 88.901 83.167 88.763 82.25C88.351 79.514 88.377 47.799 88.792 47.951C89.059 48.05 90.137 48.789 90.333 49.008C90.379 49.059 90.717 49.322 91.083 49.591C91.45 49.861 91.787 50.123 91.833 50.174C91.879 50.224 92.592 50.786 93.417 51.422C94.242 52.058 95.002 52.654 95.106 52.747C95.211 52.84 95.685 53.217 96.161 53.583C96.637 53.95 97.676 54.764 98.471 55.393C99.266 56.022 100.136 56.693 100.405 56.884C101.162 57.423 100.725 56.881 99.92 56.282C99.283 55.807 96.462 53.604 90.917 49.247C88.899 47.662 88.594 47.461 88.439 47.617ZM130.813 49C129.77 49.825 128.317 50.974 127.583 51.553C126.017 52.79 122.895 55.259 120.083 57.482C118.983 58.352 117.183 59.781 116.083 60.657C114.983 61.533 113.783 62.472 113.416 62.744C113.05 63.016 112.651 63.335 112.529 63.453C111.264 64.684 110.739 64.798 109.81 64.042C109.388 63.698 108.502 63.004 107.84 62.5C107.178 61.996 106.55 61.506 106.443 61.411C105.931 60.953 104.948 60.273 105.055 60.451C105.122 60.561 106.297 61.521 107.667 62.583C109.036 63.646 110.201 64.587 110.255 64.674C110.511 65.089 111.453 64.657 112.583 63.607C112.767 63.436 113.329 62.991 113.833 62.618C114.337 62.245 114.787 61.893 114.833 61.836C114.879 61.779 115.217 61.512 115.583 61.242C115.95 60.973 116.287 60.712 116.333 60.663C116.379 60.615 116.754 60.314 117.166 59.996C117.578 59.677 118.028 59.325 118.166 59.212C118.304 59.1 119.092 58.473 119.917 57.82C120.742 57.167 121.568 56.509 121.753 56.358C121.938 56.207 122.388 55.86 122.753 55.586C123.118 55.313 123.529 54.999 123.667 54.888C124.184 54.472 125.429 53.461 125.753 53.194C125.938 53.042 126.388 52.696 126.753 52.425C127.118 52.155 127.454 51.889 127.5 51.833C127.546 51.778 127.883 51.511 128.25 51.241C128.617 50.971 128.997 50.675 129.096 50.583C129.194 50.492 129.564 50.192 129.917 49.917C130.271 49.642 130.94 49.113 131.405 48.741C133.016 47.454 132.851 45.504 132.798 65.278C132.771 74.87 132.802 82.425 132.865 82.067C133.036 81.105 133.026 47.5 132.855 47.5C132.775 47.5 131.856 48.175 130.813 49ZM199.286 48.006C200.118 48.459 200.822 49.165 201.36 50.083L201.75 50.75L201.796 74.083C201.847 100.019 201.917 98.331 200.732 99.781C199.018 101.879 195.288 101.889 193.636 99.8C192.494 98.356 192.583 100.504 192.583 74.433V50.75L192.941 50.083C194.164 47.806 197.134 46.834 199.286 48.006ZM101.004 57.292C101.007 57.361 101.259 57.604 101.566 57.833C103.255 59.097 104.092 59.737 104.167 59.822C104.382 60.067 104.884 60.394 104.78 60.221C104.615 59.946 100.999 57.141 101.004 57.292ZM153.034 58.075C150.7 58.64 149.199 60.116 148.924 62.114C148.58 64.616 150.288 66.144 155.667 68.147C156.721 68.54 157.733 68.922 157.917 68.997C158.1 69.072 158.512 69.229 158.833 69.346C166.879 72.281 170.568 76.849 171.004 84.417L171.129 86.583L171.075 84.083C171.045 82.708 170.934 81.283 170.829 80.917C170.724 80.55 170.556 79.95 170.454 79.583C169.18 74.973 165.148 71.493 158 68.837C155.896 68.056 155.281 67.815 154.961 67.65C154.801 67.567 154.589 67.5 154.488 67.5C153.452 67.5 149.938 65.174 149.398 64.131C149.091 63.537 149.037 61.563 149.321 61.279C149.419 61.181 149.5 60.98 149.5 60.833C149.5 60.685 149.747 60.307 150.049 59.991C151.457 58.517 152.202 58.247 154.83 58.26C156.802 58.269 156.871 58.259 156.083 58.068C155.01 57.807 154.133 57.809 153.034 58.075ZM35.386 66.072C35.277 66.195 34.239 67.486 33.08 68.94C31.921 70.394 30.847 71.734 30.694 71.918C30.542 72.101 30.006 72.776 29.504 73.418C29.002 74.059 28.548 74.621 28.495 74.667C28.442 74.712 28.178 75.05 27.908 75.417C27.638 75.783 27.318 76.188 27.196 76.315C27.075 76.443 26.555 77.081 26.04 77.732C23.985 80.335 20.582 84.588 20.493 84.667C20.441 84.712 20.178 85.05 19.909 85.417C19.639 85.783 19.376 86.121 19.324 86.167C19.271 86.212 18.185 87.563 16.91 89.167C15.635 90.771 14.55 92.121 14.5 92.167C14.45 92.212 14 92.775 13.5 93.417C13 94.058 12.548 94.621 12.495 94.667C12.442 94.712 12.178 95.05 11.909 95.417C11.639 95.783 11.378 96.121 11.328 96.167C11.133 96.347 9.188 98.802 8.544 99.682C6.451 102.54 2.024 102.121 0.52 98.923C0.315 98.487 0.105 98.173 0.052 98.226C-0.109 98.387 0.498 99.497 1.128 100.195C3.092 102.368 6.454 102.371 8.346 100.2C8.66 99.84 9.329 99.002 9.833 98.339C10.691 97.21 10.913 96.933 11.638 96.083C11.794 95.9 12.146 95.45 12.419 95.083C12.691 94.717 12.955 94.379 13.004 94.333C13.054 94.287 14.141 92.938 15.42 91.333C16.699 89.729 17.788 88.379 17.84 88.333C17.892 88.287 18.155 87.951 18.425 87.587C18.913 86.928 19.425 86.293 19.756 85.936C19.851 85.834 20.151 85.45 20.422 85.083C20.693 84.717 20.955 84.379 21.004 84.333C21.054 84.287 22.141 82.938 23.42 81.333C24.699 79.729 25.788 78.379 25.84 78.333C25.892 78.287 26.155 77.951 26.425 77.587C26.913 76.928 27.425 76.293 27.756 75.936C27.851 75.834 28.151 75.45 28.422 75.083C28.693 74.717 28.954 74.379 29.003 74.333C29.052 74.287 30.364 72.646 31.921 70.686C33.477 68.725 34.975 66.888 35.25 66.602L35.75 66.083L35.833 82.25C35.926 100.182 35.828 98.783 37.081 100.142C38.034 101.175 38.799 101.517 40.313 101.589L41.583 101.649L40.417 101.506C38.914 101.323 38.083 100.959 37.282 100.133C36 98.813 36.093 100.122 36 82.097C35.918 66.143 35.893 65.495 35.386 66.072ZM70.917 66.389C70.733 66.599 70.374 67.035 70.117 67.358C66.951 71.342 63.891 75.167 63.604 75.5C63.406 75.729 62.201 77.229 60.925 78.833C56.272 84.685 55.42 85.752 55.331 85.833C55.281 85.879 54.721 86.592 54.087 87.417C53.452 88.242 52.887 88.954 52.832 89C52.715 89.097 45.654 97.949 44.917 98.923C44.045 100.075 43.097 100.908 42.328 101.196C41.918 101.35 41.718 101.481 41.882 101.488C43.033 101.535 44.058 100.427 50.641 92.019C50.884 91.708 51.16 91.37 51.254 91.269C51.455 91.05 54.344 87.413 55.174 86.333C55.491 85.921 55.911 85.396 56.108 85.167C56.305 84.938 57.568 83.362 58.914 81.667C60.26 79.971 61.608 78.283 61.911 77.917C62.214 77.55 64.014 75.3 65.911 72.917C69.856 67.962 70.454 67.226 70.917 66.756L71.25 66.417L71.419 97.417L71.46 81.708C71.482 73.069 71.444 66.001 71.375 66.003C71.306 66.005 71.1 66.178 70.917 66.389ZM132.362 84.01C132.241 84.6 132.072 85.256 131.988 85.466C131.791 85.953 131.792 86.339 131.988 86C132.215 85.609 132.699 83.539 132.638 83.222C132.607 83.065 132.483 83.42 132.362 84.01ZM89.18 85.251C89.162 85.478 89.934 87.588 90.169 87.955C90.34 88.221 90.347 88.217 90.241 87.917C90.177 87.733 90.087 87.413 90.042 87.206C89.997 86.998 89.894 86.788 89.813 86.738C89.733 86.688 89.663 86.52 89.659 86.365C89.651 86.043 89.201 84.996 89.18 85.251ZM131.58 86.696C130.321 90.862 126.221 95.901 122.236 98.181C121.009 98.883 119.028 99.833 118.792 99.833C118.662 99.833 118.5 99.889 118.432 99.957C118.364 100.025 117.921 100.207 117.446 100.362C116.972 100.518 116.696 100.65 116.834 100.656C118.589 100.733 124.456 97.259 126.855 94.723C128.868 92.594 132.26 86.871 131.788 86.399C131.738 86.349 131.644 86.483 131.58 86.696ZM170.62 88.333C170.456 89.204 170.279 90.161 170.226 90.46C170.173 90.759 170.063 91.044 169.982 91.095C169.9 91.145 169.833 91.301 169.833 91.442C169.833 93.657 165.278 98.713 161.75 100.412C159.943 101.283 160.033 101.246 159 101.544C156.66 102.221 156.41 102.25 153.083 102.241C149.879 102.233 149.032 102.148 146.333 101.562C140.544 100.306 137.024 98.122 136.075 95.197C135.757 94.215 135.806 91.628 136.149 91.284C136.25 91.183 136.335 90.984 136.338 90.842C136.345 90.455 137.229 89.36 137.949 88.845C139.688 87.603 141.79 87.822 145.743 89.657C147.377 90.416 148.044 90.68 148.198 90.628C148.289 90.598 147.963 90.399 147.474 90.187C146.984 89.974 146.188 89.62 145.704 89.4C145.22 89.18 144.729 89 144.612 89C144.495 89 144.329 88.93 144.242 88.844C143.916 88.523 141.427 87.833 140.604 87.836C135.638 87.85 133.818 94.297 137.743 97.968C138.714 98.877 139.051 99.101 140.75 99.969C141.476 100.34 143.357 101.022 144.417 101.298C144.783 101.394 145.383 101.554 145.75 101.654C147.019 101.999 148.964 102.281 152.22 102.593C160.331 103.369 168.435 97.814 170.47 90.083C170.943 88.288 171.022 87.853 170.971 87.323C170.931 86.897 170.84 87.156 170.62 88.333ZM90.333 88.422C90.333 88.725 92.476 92.391 92.815 92.667C92.871 92.712 93.203 93.106 93.553 93.541C94.668 94.929 97.168 97.25 97.166 96.895C97.165 96.815 96.915 96.581 96.611 96.373C94.841 95.168 92.215 91.869 90.843 89.125C90.479 88.395 90.333 88.195 90.333 88.422ZM369.917 94.282C367.247 94.502 364.365 95.904 362.578 97.851C361.923 98.564 360.833 100.052 360.833 100.234C360.833 100.284 360.653 100.72 360.432 101.204C360.011 102.125 359.922 102.448 359.645 104.083C358.681 109.771 363.36 116.144 368.833 116.599C369.73 116.674 369.59 116.608 368.25 116.329C361.545 114.927 357.866 107.289 360.786 100.833C364.115 93.474 374.788 92.316 379.615 98.791C379.872 99.135 380.119 99.454 380.166 99.5C380.624 99.953 381.398 101.938 381.753 103.57C381.944 104.447 381.975 104.5 381.987 103.966C381.994 103.627 381.935 103.177 381.855 102.966C381.775 102.756 381.616 102.283 381.502 101.917C380.033 97.188 374.987 93.863 369.917 94.282ZM370.288 96.62C370.584 96.657 371.109 96.658 371.455 96.622C371.8 96.586 371.558 96.555 370.917 96.555C370.275 96.554 369.992 96.583 370.288 96.62ZM367.809 96.993C357.225 101.025 361.811 116.68 372.917 114.43C375.864 113.833 379.667 110.026 379.667 107.674C379.667 107.476 379.753 106.97 379.859 106.549C380.179 105.281 379.749 103.132 378.784 101.171C377.755 99.08 374.343 96.642 372.5 96.68C372.263 96.685 372.479 96.794 373 96.932C377.143 98.031 379.583 101.269 379.583 105.667C379.583 107.654 379.511 107.977 378.692 109.653C377.922 111.227 375.072 113.833 374.121 113.833C373.999 113.833 373.829 113.897 373.742 113.975C373.129 114.524 369.508 114.551 368.083 114.017C365.237 112.951 363.46 111.151 362.308 108.167C362.002 107.372 362.004 103.787 362.311 103C363.549 99.832 365.347 98.019 368.102 97.162C368.733 96.966 369.325 96.78 369.417 96.749C369.508 96.718 369.358 96.694 369.083 96.696C368.808 96.697 368.235 96.831 367.809 96.993ZM97.333 97.079C97.333 97.119 97.671 97.383 98.083 97.667C98.496 97.95 98.833 98.122 98.833 98.048C98.833 97.975 98.496 97.71 98.083 97.461C97.671 97.212 97.333 97.04 97.333 97.079ZM99.558 98.598C99.907 98.835 100.227 98.995 100.27 98.952C100.349 98.873 99.239 98.167 99.035 98.167C98.973 98.167 99.208 98.361 99.558 98.598ZM100.5 99.065C100.5 99.151 101.96 99.835 102.123 99.826C102.272 99.817 100.81 99.019 100.625 99.008C100.556 99.003 100.5 99.029 100.5 99.065ZM365.747 99.697C365.701 99.819 365.682 102.543 365.706 105.751L365.75 111.583L366.658 111.635C368.402 111.734 368.333 111.834 368.333 109.177C368.333 107.48 368.389 106.839 368.542 106.777C368.666 106.727 368.633 106.688 368.458 106.68C368.194 106.668 368.167 106.883 368.167 108.982C368.167 111.568 368.199 111.502 366.945 111.497C365.765 111.493 365.824 111.823 365.873 105.572L365.917 99.917L368.917 99.867C372.475 99.807 373.076 99.876 373.95 100.443C376.042 101.799 375.642 104.925 373.24 105.987C372.376 106.37 372.342 106.477 372.96 106.891C373.359 107.158 374.11 108.237 375.013 109.837C375.157 110.094 375.404 110.5 375.561 110.74C375.972 111.366 375.788 111.5 374.531 111.497C373.186 111.494 373.197 111.501 372.555 110.25C371.488 108.169 371.232 107.774 370.595 107.228C370.196 106.886 369.773 106.673 369.512 106.682C369.114 106.696 369.122 106.708 369.612 106.85C370.317 107.054 371.268 108.179 372.083 109.773C373.027 111.618 373.091 111.667 374.589 111.667C376.192 111.667 376.253 111.523 375.311 109.957C374.912 109.293 374.484 108.549 374.36 108.303C374.237 108.056 373.843 107.538 373.484 107.15C373.126 106.762 372.852 106.429 372.875 106.41C372.898 106.391 373.179 106.247 373.5 106.089C376.245 104.74 376.085 100.726 373.25 99.822C372.26 99.507 365.861 99.4 365.747 99.697ZM102.368 99.923C102.529 100.084 104.238 100.667 104.498 100.65C104.636 100.64 104.36 100.507 103.884 100.353C103.407 100.199 102.963 100.019 102.898 99.953C102.832 99.887 102.665 99.833 102.528 99.833C102.39 99.833 102.318 99.874 102.368 99.923ZM105.083 100.833C105.582 101.047 105.998 101.047 105.667 100.833C105.529 100.744 105.267 100.676 105.083 100.681L104.75 100.69L105.083 100.833ZM115.667 100.833C115.46 100.967 115.474 100.995 115.75 100.995C115.933 100.995 116.196 100.922 116.333 100.833C116.54 100.7 116.526 100.672 116.25 100.672C116.067 100.672 115.804 100.744 115.667 100.833ZM106.667 101.188C108.001 101.498 112.932 101.543 114.25 101.258C115.322 101.027 115.342 101.015 114.5 101.114C113.287 101.256 108.182 101.263 106.917 101.124C105.964 101.019 105.952 101.023 106.667 101.188ZM368.238 101.722C368.191 101.845 368.174 102.576 368.201 103.347L368.25 104.75L371.417 104.777L368.417 104.583L368.366 103.505C368.282 101.706 368.31 101.667 369.679 101.667C371.302 101.667 372.206 101.92 372.548 102.47C372.729 102.762 372.826 102.825 372.829 102.651C372.844 101.75 368.559 100.884 368.238 101.722ZM89.667 103.441C87.609 103.632 84.532 104.298 83.25 104.828C83.067 104.904 82.654 105.061 82.333 105.176C77.831 106.791 73.02 110.923 70.216 115.583C69.568 116.661 68.066 119.92 67.901 120.607C67.839 120.869 67.732 121.158 67.665 121.25C67.597 121.342 67.5 121.642 67.449 121.917C67.398 122.192 67.232 122.867 67.079 123.417C66.717 124.716 66.519 125.953 66.424 127.5C66.358 128.573 66.39 128.467 66.653 126.75C67.009 124.427 67.119 123.857 67.411 122.833C67.962 120.907 68.068 120.572 68.176 120.417C68.24 120.325 68.346 120.063 68.41 119.833C68.692 118.838 70.599 115.287 71.628 113.843C77.138 106.113 86.081 102.503 96.417 103.836C97.792 104.013 99.217 104.227 99.583 104.312C100.976 104.633 101.425 104.694 101.167 104.526C100.08 103.819 92.892 103.141 89.667 103.441ZM372.636 103.617C372.581 103.818 372.284 104.137 371.976 104.324C371.668 104.512 371.529 104.665 371.667 104.665C372.108 104.665 372.877 103.929 372.804 103.576C372.741 103.273 372.729 103.276 372.636 103.617ZM220.583 103.695C216.864 104.948 215.716 109.116 218.343 111.823C219.614 113.133 219.799 113.167 225.657 113.167H230.832L230.919 153.75L230.917 113.083L225.75 113.04C221.016 113 220.525 112.969 219.885 112.669C216.248 110.962 216.281 105.758 219.94 104.139C220.962 103.687 250.088 103.736 250.917 104.191C253.809 105.778 254.327 109.504 251.972 111.782C250.816 112.901 250.779 112.908 245.417 113L240.583 113.083L240.417 154.417L240.043 155.227C238.216 159.185 232.563 158.769 231.278 154.581C231.049 153.833 231.022 153.803 231.012 154.282C231.005 154.574 231.075 154.86 231.167 154.917C231.258 154.973 231.333 155.148 231.333 155.304C231.333 156.478 233.974 158.169 235.8 158.164C237.955 158.158 239.539 157.022 240.386 154.872C240.644 154.218 240.667 152.48 240.667 133.663V113.167H245.433C250.835 113.167 250.812 113.171 252.171 111.841C254.891 109.18 253.753 104.87 250.017 103.68C249.259 103.439 221.301 103.453 220.583 103.695ZM177.19 104.258C175.748 104.913 174.879 105.916 174.408 107.467C174.052 108.638 174.052 153.362 174.408 154.533C174.841 155.959 175.75 157.138 176.75 157.57C177.984 158.104 178.239 158.167 179.17 158.167C180.923 158.167 182.5 157.171 183.527 155.417L183.917 154.75L184.083 113.917L202.908 113.831L203.745 114.247C207.43 116.078 207.548 120.953 203.958 123.011C203.25 123.417 203.25 123.417 197.417 123.467C194.024 123.496 191.517 123.583 191.425 123.675C191.186 123.914 202.07 123.884 202.822 123.643C208.131 121.941 208.082 115.067 202.75 113.676C201.965 113.471 184.364 113.433 184.045 113.635C183.885 113.737 183.83 118.241 183.795 134.175L183.75 154.583L183.355 155.38C181.725 158.66 176.755 158.802 175.047 155.616C174.341 154.298 174.348 154.561 174.341 131.138C174.333 107.379 174.328 107.538 175.109 106.333C175.866 105.166 176.654 104.571 177.936 104.199C178.848 103.934 202.021 103.915 203.647 104.178C209.437 105.113 213.817 108.777 215.506 114.097C215.795 115.006 216.055 115.825 216.086 115.917C216.116 116.008 216.146 115.923 216.154 115.727C216.161 115.531 215.971 114.781 215.731 114.061C213.96 108.735 210.06 105.359 204.123 104.013C203.59 103.893 199.178 103.836 190.706 103.843L178.083 103.853L177.19 104.258ZM313.237 104.062C311.864 104.566 310.786 105.617 310.222 107C309.931 107.715 309.917 108.843 309.917 131.167V154.583L310.304 155.394C310.775 156.377 311.762 157.348 312.807 157.854C313.684 158.278 316.007 158.393 316.371 158.029C316.478 157.922 316.691 157.833 316.843 157.833C317.218 157.833 318.612 156.585 318.958 155.939C319.676 154.6 319.662 154.943 319.664 138.635C319.666 130.046 319.728 122.982 319.803 122.935C319.878 122.889 320.047 123.006 320.178 123.196C320.309 123.386 320.495 123.625 320.59 123.729C320.685 123.832 321.383 124.704 322.141 125.667C322.898 126.629 323.794 127.748 324.131 128.154C324.469 128.559 324.964 129.197 325.232 129.57C325.501 129.944 325.767 130.287 325.824 130.333C325.882 130.379 326.751 131.459 327.756 132.732C331.061 136.921 333.715 140.249 333.818 140.333C333.873 140.379 334.139 140.717 334.409 141.083C334.678 141.45 334.941 141.787 334.992 141.833C335.043 141.879 335.395 142.329 335.774 142.833C336.153 143.337 336.603 143.9 336.773 144.083C336.944 144.267 337.305 144.717 337.577 145.083C338.142 145.847 342.52 151.374 342.66 151.5C342.71 151.546 342.974 151.883 343.245 152.25C343.516 152.617 343.833 153.015 343.95 153.134C344.129 153.318 344.904 154.308 345.998 155.749C348.781 159.413 353.69 158.925 355.082 154.845C355.496 153.63 355.458 108.328 355.042 107.106C354.18 104.577 351.286 103.243 348.715 104.188C347.644 104.582 346 106.074 346 106.653C346 106.833 345.925 107.027 345.833 107.083C345.742 107.14 345.674 107.388 345.683 107.635C345.695 107.991 345.754 107.915 345.969 107.269C347.077 103.93 351.176 102.983 353.68 105.487C355.3 107.106 355.178 104.928 355.127 131.367L355.083 154.417L354.689 155.288C353.789 157.28 351.574 158.452 349.591 157.986C347.939 157.597 347.213 157.024 345.45 154.718C345.017 154.15 344.566 153.587 344.45 153.468C344.333 153.348 344.016 152.95 343.745 152.583C343.474 152.217 343.21 151.879 343.16 151.833C343.109 151.787 342.714 151.285 342.281 150.718C341.849 150.15 341.401 149.587 341.286 149.468C341.172 149.348 340.555 148.575 339.916 147.75C338.722 146.209 338.373 145.769 338.082 145.44C337.908 145.242 337.537 144.775 334.486 140.917C333.472 139.633 332.552 138.471 332.443 138.333C329.391 134.504 328.089 132.864 326.749 131.156C325.855 130.016 324.874 128.783 324.57 128.417C324.266 128.05 323.399 126.962 322.644 126C321.888 125.037 321.224 124.212 321.168 124.167C321.112 124.121 320.812 123.725 320.502 123.288C320.192 122.851 319.858 122.519 319.761 122.552C319.638 122.593 319.558 127.508 319.5 138.597L319.417 154.583L319.047 155.355C317.286 159.026 312.081 158.939 310.484 155.212C310.177 154.497 310.167 153.697 310.167 131.017V107.562L310.578 106.74C312.057 103.784 315.647 103.096 317.965 105.325C318.305 105.652 319.498 107.081 320.616 108.501C321.734 109.921 322.797 111.271 322.978 111.5C323.16 111.729 323.928 112.704 324.686 113.667C325.444 114.629 326.108 115.454 326.161 115.5C326.215 115.546 326.518 115.921 326.835 116.333C327.152 116.746 327.488 117.167 327.581 117.269C327.674 117.37 327.975 117.741 328.25 118.092C329.567 119.773 333.574 124.798 333.892 125.167C334.089 125.396 334.661 126.108 335.163 126.75C335.665 127.392 336.118 127.954 336.17 128C336.223 128.046 336.693 128.634 337.215 129.307C337.737 129.98 338.423 130.843 338.74 131.224C339.057 131.605 339.936 132.704 340.694 133.667C341.452 134.629 342.187 135.543 342.328 135.698C342.468 135.853 343.183 136.768 343.917 137.732C344.65 138.695 345.344 139.487 345.458 139.492C345.624 139.498 345.658 136.306 345.626 123.958L345.585 108.417L345.498 139.373L344.321 137.895C343.673 137.082 343.007 136.257 342.841 136.062C342.674 135.867 342.137 135.192 341.647 134.562C341.158 133.932 340.717 133.379 340.669 133.333C340.62 133.287 340.075 132.612 339.458 131.833C337.313 129.127 335.145 126.415 334.862 126.083C334.342 125.475 330.588 120.77 330.333 120.408C330.196 120.212 329.807 119.722 329.468 119.318C329.13 118.914 328.382 117.983 327.806 117.25C327.23 116.517 326.717 115.879 326.666 115.833C326.524 115.706 324.647 113.335 324.092 112.583C323.822 112.217 323.556 111.879 323.502 111.833C323.338 111.696 319.453 106.804 318.932 106.079C317.62 104.252 315.124 103.368 313.237 104.062ZM256.944 104.278C256.883 104.339 256.833 116.489 256.833 131.278V158.167H302.833V104.167H279.944C267.356 104.167 257.006 104.217 256.944 104.278ZM101.977 104.923C102.286 105.057 102.643 105.167 102.771 105.167C102.9 105.167 103.135 105.234 103.294 105.316C103.453 105.398 103.921 105.596 104.333 105.756C110.989 108.328 114.207 112.765 112.278 116.708C110.987 119.346 108.072 120.067 105.012 118.506C104.222 118.103 102.46 117.003 102.333 116.834C101.777 116.09 97.926 114.479 95.917 114.149C87.175 112.714 81.032 116.69 78.752 125.257C78.522 126.123 78.342 127.038 78.352 127.291C78.363 127.579 78.456 127.377 78.6 126.75C79.576 122.514 80.722 120.173 82.989 117.784C86.075 114.533 92.425 113.046 96.833 114.542C96.971 114.588 97.533 114.765 98.083 114.934C99.314 115.311 100.789 116.066 102.592 117.241C106.237 119.617 108.135 120.077 110.224 119.088C113.264 117.65 113.942 113.165 111.539 110.39C111.288 110.101 110.964 109.726 110.818 109.557C109.783 108.361 105.154 105.5 104.253 105.5C104.188 105.5 103.897 105.399 103.609 105.276C102.839 104.947 101.927 104.666 101.655 104.673C101.524 104.677 101.669 104.789 101.977 104.923ZM382.052 105.583C382.053 106.133 382.084 106.338 382.121 106.039C382.158 105.739 382.157 105.289 382.119 105.039C382.081 104.788 382.051 105.033 382.052 105.583ZM381.682 107.739C380.831 112.014 377.532 115.44 373.417 116.323C372.072 116.611 371.942 116.673 372.833 116.599C377.131 116.242 382.648 110.393 381.974 106.908C381.94 106.73 381.808 107.103 381.682 107.739ZM292.788 110.088C296.368 111.584 296.512 116.651 293.022 118.298C292.498 118.545 291.629 118.595 286.583 118.667L280.75 118.75V126.417L286.25 126.5C292.179 126.59 291.869 126.543 293.213 127.56C295.251 129.1 295.149 133.029 293.032 134.516C291.894 135.315 291.546 135.362 286.167 135.444C283.371 135.487 280.99 135.552 280.875 135.589C280.526 135.702 280.579 143.264 280.93 143.399C281.075 143.454 283.719 143.501 286.805 143.503C293.404 143.505 294.04 143.639 295.151 145.262C296.012 146.518 296.104 149.255 295.32 150.292C293.713 152.419 293.282 152.5 283.519 152.5C273.321 152.5 272.271 152.218 271.216 149.188C270.937 148.387 270.901 114.031 271.178 113.15C271.618 111.755 272.356 110.868 273.583 110.262L274.417 109.851L283.297 109.842C290.907 109.835 292.265 109.87 292.788 110.088ZM216.237 118.667C216.238 120.949 216.247 121.012 216.389 119.793C216.479 119.022 216.478 118.05 216.388 117.377C216.252 116.368 216.236 116.504 216.237 118.667ZM370.208 116.788C370.552 116.824 371.115 116.824 371.458 116.788C371.802 116.752 371.521 116.723 370.833 116.723C370.146 116.723 369.865 116.752 370.208 116.788ZM215.862 122.006C214.516 127.588 208.704 133 204.056 133C202.907 133 203.057 133.191 207.337 137.167C209.091 138.795 210.387 140.007 212.242 141.75C212.437 141.933 213.006 142.454 213.506 142.907C214.007 143.359 215.617 144.867 217.083 146.256C218.55 147.645 220.036 149.03 220.385 149.333C224.895 153.254 221.074 159.925 215.716 157.485C214.941 157.132 214.523 156.769 210.171 152.676C208.753 151.341 207.141 149.837 206.588 149.333C206.035 148.829 205.351 148.192 205.067 147.917C204.784 147.642 204.145 147.042 203.649 146.583C202.565 145.583 198.26 141.555 197.766 141.08C197.574 140.895 196.556 139.958 195.504 138.997C194.453 138.036 193.322 136.987 192.992 136.667C192.661 136.346 191.306 135.058 189.98 133.805C186.988 130.98 186.633 130.411 186.633 128.44C186.633 125.984 188.07 124.293 190.417 123.989L191.25 123.88L190.385 123.857C189.909 123.844 189.473 123.908 189.417 124C189.36 124.092 189.195 124.167 189.049 124.167C188.584 124.167 187.423 125.266 186.914 126.189C185.785 128.235 186.359 130.697 188.416 132.635C188.969 133.157 190.428 134.521 191.659 135.667C192.889 136.813 194.167 138.012 194.498 138.333C194.83 138.654 195.845 139.592 196.753 140.417C197.662 141.242 198.636 142.142 198.917 142.417C199.198 142.692 199.916 143.367 200.513 143.917C201.109 144.467 202.755 146.004 204.171 147.333C205.588 148.662 207.16 150.129 207.665 150.593C208.17 151.056 209.956 152.725 211.633 154.301C215.31 157.755 215.963 158.162 217.833 158.162C222.546 158.162 224.37 152.351 220.63 149.252C220.139 148.845 218.096 146.952 214.502 143.573C213.813 142.925 212.765 141.95 212.172 141.406C211.579 140.862 210.862 140.192 210.578 139.917C210.294 139.642 209.613 139.004 209.064 138.5C203.326 133.224 203.358 133.264 204.747 133.091C205.25 133.028 205.705 132.907 205.757 132.822C205.81 132.736 206.009 132.667 206.201 132.667C206.62 132.667 208.729 131.67 209.901 130.917C211.748 129.732 214.045 127.104 214.97 125.118C215.699 123.552 216.23 121.87 216.141 121.409C216.108 121.237 215.982 121.506 215.862 122.006ZM96.167 126.158C94.55 126.429 91.835 128.557 92.393 129.115C92.438 129.16 92.591 128.974 92.732 128.701C93.083 128.023 94.469 126.831 95.04 126.717C95.297 126.666 95.547 126.558 95.597 126.478C95.764 126.207 111.804 126.303 112.719 126.58C114.759 127.199 115.763 128.311 116.409 130.667C116.572 131.264 116.636 131.38 116.592 131C116.336 128.807 115.176 127.327 113 126.418C112.196 126.082 97.93 125.861 96.167 126.158ZM78.107 129.024C77.971 130.324 77.996 132.481 78.16 133.667C78.248 134.303 78.294 133.575 78.31 131.292C78.334 127.85 78.286 127.311 78.107 129.024ZM92.038 129.875C91.271 131.997 92.551 135.08 94.611 136.074C94.963 136.244 95.38 136.446 95.539 136.525C95.699 136.603 97.817 136.667 100.248 136.667H104.667V137.895C104.667 148.648 87.518 152.223 81.416 142.743C80.008 140.556 79.305 138.811 78.6 135.75C78.474 135.2 78.362 134.929 78.352 135.147C78.342 135.366 78.414 135.853 78.513 136.231C78.612 136.608 78.772 137.217 78.868 137.583C79.832 141.265 82.594 145.31 84.962 146.512C85.212 146.639 85.679 146.899 86 147.089C87.728 148.117 91.074 148.657 93.876 148.36C100.041 147.705 104.168 143.949 104.863 138.361C105.111 136.369 105.446 136.506 100.333 136.499C95.685 136.491 94.975 136.365 93.776 135.327C92.466 134.193 91.675 131.648 92.182 130.195C92.282 129.908 92.336 129.592 92.303 129.492C92.269 129.392 92.15 129.564 92.038 129.875ZM66.224 131.083C66.224 131.817 66.254 132.096 66.289 131.704C66.324 131.312 66.324 130.712 66.288 130.371C66.252 130.029 66.223 130.35 66.224 131.083ZM116.732 133.833C116.732 135.071 116.758 135.577 116.79 134.958C116.822 134.34 116.822 133.327 116.79 132.708C116.758 132.09 116.732 132.596 116.732 133.833ZM66.415 134.75C66.577 137.869 67.487 141.102 69.3 145C71.443 149.607 76.038 154.17 80.833 156.453C83.011 157.491 83.453 157.649 85.917 158.276C87.73 158.737 90.934 159.13 90.774 158.872C90.719 158.783 89.979 158.658 89.129 158.594C88.279 158.53 87.321 158.412 87 158.332C86.679 158.252 85.929 158.066 85.333 157.918C84.351 157.673 83.944 157.549 82.917 157.18C76.22 154.772 70.405 148.531 67.92 141.083C67.282 139.172 67.167 138.662 66.661 135.5C66.392 133.822 66.361 133.729 66.415 134.75ZM116.305 137.917C114.983 146.616 110.706 152.77 103.5 156.341C101.776 157.195 100.771 157.528 97.5 158.33C97.179 158.408 96.222 158.524 95.374 158.587C94.525 158.651 93.783 158.779 93.725 158.874C93.515 159.213 98.118 158.548 99.667 158.015C99.896 157.937 100.421 157.775 100.833 157.657C103.775 156.815 107.878 154.2 110.211 151.68C111.017 150.809 113.167 147.961 113.167 147.764C113.167 147.728 113.412 147.26 113.712 146.724C114.172 145.902 114.656 144.813 115.329 143.083C115.926 141.549 116.747 137.482 116.642 136.583C116.608 136.293 116.467 136.851 116.305 137.917Z" fill="black"/>
<path fill-rule="evenodd" clip-rule="evenodd" d="M88.506 64.214C88.512 80.87 88.537 81.647 89.145 84.5C89.35 85.463 89.721 86.61 89.878 86.767C89.945 86.834 90 86.998 90 87.132C90 88.73 94.081 94.452 96.583 96.361C96.858 96.571 97.178 96.834 97.294 96.946C97.411 97.057 97.804 97.316 98.169 97.522C98.535 97.727 98.833 97.956 98.833 98.031C98.833 98.105 98.91 98.167 99.003 98.167C99.097 98.167 99.453 98.337 99.795 98.545C100.337 98.875 101.902 99.61 102.917 100.011C103.264 100.148 104.438 100.498 105.583 100.804C107.231 101.246 112.413 101.425 114.333 101.108C115.629 100.893 118.168 100.187 118.408 99.974C118.495 99.897 118.67 99.833 118.797 99.833C119.231 99.833 122.406 98.164 123.486 97.367C127.628 94.314 130.343 90.607 131.812 86C132.799 82.904 132.733 84.297 132.792 65.294C132.854 45.499 133.017 47.453 131.405 48.741C130.94 49.113 130.271 49.642 129.917 49.917C129.564 50.192 129.194 50.492 129.096 50.583C128.997 50.675 128.617 50.971 128.25 51.241C127.883 51.511 127.546 51.778 127.5 51.833C127.454 51.889 127.118 52.155 126.753 52.425C126.388 52.696 125.938 53.042 125.753 53.194C125.429 53.461 124.184 54.472 123.667 54.888C123.529 54.999 123.118 55.313 122.753 55.586C122.388 55.86 121.938 56.207 121.753 56.358C121.568 56.509 120.742 57.167 119.917 57.82C119.092 58.473 118.304 59.1 118.166 59.212C118.028 59.325 117.578 59.677 117.166 59.996C116.754 60.314 116.379 60.615 116.333 60.663C116.287 60.712 115.95 60.973 115.583 61.242C115.217 61.512 114.879 61.779 114.833 61.836C114.787 61.893 114.337 62.245 113.833 62.618C113.329 62.991 112.767 63.436 112.583 63.607C111 65.079 110.827 65.088 109.198 63.792C108.478 63.219 107.117 62.15 106.174 61.417C105.231 60.683 104.374 60.006 104.271 59.911C104.168 59.816 103.783 59.517 103.417 59.247C102.772 58.772 101.17 57.503 101 57.333C100.954 57.288 100.321 56.8 99.592 56.25C98.864 55.7 97.991 55.025 97.653 54.75C97.316 54.475 96.647 53.95 96.168 53.583C95.688 53.217 95.211 52.84 95.106 52.747C95.002 52.654 94.242 52.058 93.417 51.422C92.592 50.786 91.879 50.224 91.833 50.174C91.787 50.123 91.45 49.861 91.083 49.591C90.717 49.322 90.379 49.059 90.333 49.008C90.137 48.789 89.059 48.05 88.792 47.951C88.515 47.849 88.5 48.692 88.506 64.214ZM185.248 74.5C185.248 87.104 185.267 92.26 185.292 85.958C185.316 79.656 185.316 69.344 185.292 63.042C185.267 56.74 185.248 61.896 185.248 74.5ZM368.057 103.25C368.058 103.983 368.087 104.263 368.122 103.871C368.157 103.479 368.157 102.879 368.121 102.537C368.085 102.196 368.057 102.517 368.057 103.25ZM368.066 109.083C368.066 110.367 368.092 110.87 368.124 110.201C368.156 109.532 368.155 108.482 368.123 107.868C368.091 107.253 368.065 107.8 368.066 109.083ZM253.379 108.333C253.379 108.746 253.411 108.915 253.451 108.708C253.491 108.502 253.491 108.165 253.451 107.958C253.411 107.752 253.379 107.921 253.379 108.333ZM112.714 114.25C112.716 114.708 112.748 114.876 112.786 114.623C112.825 114.369 112.824 113.994 112.784 113.789C112.744 113.584 112.713 113.792 112.714 114.25ZM206.712 118.667C206.712 119.079 206.745 119.248 206.784 119.042C206.824 118.835 206.824 118.498 206.784 118.292C206.745 118.085 206.712 118.254 206.712 118.667ZM216.212 118.667C216.212 119.079 216.245 119.248 216.284 119.042C216.324 118.835 216.324 118.498 216.284 118.292C216.245 118.085 216.212 118.254 216.212 118.667ZM66.372 129.167C66.372 129.487 66.406 129.619 66.448 129.458C66.49 129.298 66.49 129.035 66.448 128.875C66.406 128.715 66.372 128.846 66.372 129.167ZM66.379 133C66.379 133.412 66.411 133.581 66.451 133.375C66.491 133.169 66.491 132.831 66.451 132.625C66.411 132.419 66.379 132.587 66.379 133Z" fill="black"/>
</svg>
