<svg width="409" height="247" viewBox="0 0 409 247" fill="none" xmlns="http://www.w3.org/2000/svg">
<path d="M139.242 212.939L102.075 180.9C95.998 175.663 87.2748 174.839 80.3234 178.846L63.056 188.803L65.4246 156.878L116.923 173.987C126.82 177.273 137.499 171.914 140.784 162.026C144.07 152.134 138.715 141.451 128.823 138.165L110.047 131.928C32.4586 154.693 37.9985 153.175 35.7354 153.452C37.9194 152.815 31.7988 155.644 123.101 111.559C132.487 107.027 136.423 95.7433 131.89 86.3563C127.357 76.9701 116.074 73.0335 106.687 77.5668C15.6905 121.505 21.4564 118.593 19.592 119.905C21.1553 118.362 19.6543 119.531 45.2718 101.464C43.2851 100.892 41.2106 100.511 39.0673 100.353C22.2848 99.1087 7.6743 111.701 6.42973 128.482L0.0846667 213.979C-1.1599 230.759 11.4336 245.372 28.2137 246.617C35.459 247.153 43.0191 243.848 46.0107 242.195C52.8119 238.285 87.4266 218.321 87.5736 218.236L114.594 241.527C122.488 248.332 134.406 247.45 141.211 239.555C148.02 231.662 147.136 219.745 139.242 212.939Z" fill="black"/>
<path d="M52.363 84.3536C73.0101 84.3536 89.748 67.6158 89.748 46.9686C89.748 26.3214 73.0101 9.5836 52.363 9.5836C31.7158 9.5836 14.978 26.3214 14.978 46.9686C14.978 67.6158 31.7158 84.3536 52.363 84.3536Z" fill="black"/>
<path d="M159.136 2.57072C145.829 -3.331 130.258 2.67217 124.357 15.979C120.246 25.247 121.917 35.6101 127.802 43.044L121.767 56.6512C130.022 57.041 138.071 60.2946 144.324 66.1516L150.172 52.9646C159.632 52.3375 168.435 46.6187 172.545 37.3508C178.446 24.0431 172.443 8.47244 159.136 2.57072Z" fill="black"/>
<path d="M408.915 213.98L402.57 128.482C401.326 111.702 386.703 99.1151 369.933 100.353C362.953 100.871 356.703 103.707 351.866 108.044L270.216 102.286C259.833 101.553 250.795 109.386 250.063 119.784C249.328 130.182 257.163 139.206 267.562 139.938L342.713 145.238L345.946 188.804L328.678 178.847C321.728 174.838 313.003 175.663 306.928 180.9L269.761 212.939C261.865 219.744 260.983 231.662 267.789 239.557C274.594 247.452 286.511 248.335 294.405 241.529L321.426 218.237C338.44 228.09 366.651 246.699 375.993 246.593C394.831 248.145 410.29 232.508 408.915 213.98Z" fill="black"/>
<path d="M356.639 84.3536C377.286 84.3536 394.024 67.6158 394.024 46.9686C394.024 26.3214 377.286 9.5836 356.639 9.5836C335.991 9.5836 319.254 26.3214 319.254 46.9686C319.254 67.6158 335.991 84.3536 356.639 84.3536Z" fill="black"/>
</svg>
